<?xml version="1.0" encoding="UTF-8"?>
<svg xmlns="http://www.w3.org/2000/svg" id="a" width="865.76" height="682.89" viewBox="0 0 865.76 682.89">
  <path d="M223.85,277.11s-18.17,34.4-7.15,56.15c0,0,17.12,29.8,18.98,37.24,.03,.14,.17,.1,.28,.01,8.56-6.39,57.56-26.39,33.56-143.39,3.84-9.39-24.84,53.44-45.67,49.99Z" fill="#eaeaea" stroke="#002346" stroke-miterlimit="10"></path>
  <path d="M538.86,182.31s28-5.36,10.11,35.6c-.82,1.88-2.88,2.91-4.88,2.46-4.03-.91-10.11-2.36-9.49-2.72,.92-.53,1.54-34.38,1.54-34.38l2.73-.95Z" fill="#f1b2c0" stroke="#002346" stroke-miterlimit="10"></path>
  <rect x="530.44" y="139.86" width="8.42" height="514.76" fill="#eaeaea" stroke="#002346" stroke-miterlimit="10"></rect>
  <rect x="430.91" y="49.43" width="221.69" height="93.38" rx="7.48" ry="7.48" fill="#fff" stroke="#002346" stroke-miterlimit="10"></rect>
  <rect x="426.74" y="44.67" width="221.69" height="93.38" rx="7.48" ry="7.48" fill="#ffffff" stroke="#002346" stroke-miterlimit="10"></rect>
  <path d="M399.19,173.94l41.35,39.75c2.39,2.3,5.73,3.32,9,2.76,13.57-2.34,49.78-9.25,64.56-18.29,2.08-1.3,3.53-3.41,4-5.82,.9-4.38,3.07-11.95,7.8-15.24,2.07-2.15,3.7-4.68,4.8-7.46,.47-1.4,1.78-2.36,3.26-2.37h0c1.84-.01,3.35,1.43,3.43,3.27,.11,2.79-.35,7.27-7,13.63v40.27s-5.66-2.64-8.34-5c0,0-46.9,28.37-81.54,31.93-1.97,.2-3.95-.23-5.65-1.24-7.23-4.3-28-17.15-39.73-29.53,.05,0-4.2-32.24,4.06-46.66Z" fill="#f1b2c0" stroke="#002346" stroke-miterlimit="10"></path>
  <rect x="534.61" y="183.99" width="15.79" height="6.56" rx="2.36" ry="2.36" transform="translate(-31.35 178.81) rotate(-18.2)" fill="#f1b2c0" stroke="#002346" stroke-miterlimit="10"></rect>
  <rect x="526.63" y="197.28" width="28.25" height="6.56" rx="2.36" ry="2.36" transform="translate(-35.59 178.93) rotate(-18.2)" fill="#f1b2c0" stroke="#002346" stroke-miterlimit="10"></rect>
  <rect x="523.54" y="206.07" width="28.25" height="6.56" rx="2.36" ry="2.36" fill="#f1b2c0" stroke="#002346" stroke-miterlimit="10"></rect>
  <rect x="524.54" y="214.37" width="23.19" height="6.56" rx="2.36" ry="2.36" fill="#f1b2c0" stroke="#002346" stroke-miterlimit="10"></rect>
  <path d="M457.44,609.48l-12.82-29.5,23-11,8.64,28.9s-11.67,9.81-18.82,11.6Z" fill="#f1b2c0" stroke="#002346" stroke-miterlimit="10"></path>
  <polygon points="296.23 569.92 300.1 597.86 320.66 593.69 320.66 565.68 296.23 569.92" fill="#f1b2c0" stroke="#002346" stroke-miterlimit="10"></polygon>
  <path d="M271.85,334.43s6.67,90.69,20.67,226.69c0,0,11.59,16.64,36-6l.2-227.62c0-.86,1.18-1.11,1.51-.31l107.28,246.93s23.27-1.93,34-21c0,0-79.34-253.25-93.05-284.24l-106.62,48.86v16.69Z" fill="#ffffff" stroke="#002346" stroke-miterlimit="10"></path>
  <g>
    <path d="M375.48,213.84c11.04,9.28,21.79,16.62,21.79,16.62l6.83-60.09-31.96-35.25c-2.59-2.85-5.39-5.51-8.43-7.87-2.6-2.02-4.77-3.38-6.92-3.53-16.39-1.08-8.34-1.57-3.86-1.74l-56.76,1.71s-6.73,1.11-8.57,7.37c-5.8,6.47-11.6,22.18-11.6,22.18l-2,15.93c-.81-1.67-2.56-3.54-6.17-5.16-.88,.22-27.85,9.13-42.28,38.94-2.04,2.57-3.19,4.22-3.19,4.22l1.33-.11s-.01,.03-.02,.04c0,0,.02-.03,.03-.04l45.45-3.76-3.58,121.58c19.67,9.84,76.88-28,76.88-28,16.52-14,36.63-21.15,45.36-23.78,2.16-.65,3.3-3.01,2.45-5.1-5.22-12.79-13.72-48.07-15.13-53.98-.05-.21,.19-.32,.36-.18Z" fill="#2e2e2e" stroke="#002346" stroke-miterlimit="10"></path>
    <path d="M352.92,121.98l2.3-.07s-1,.02-2.3,.07Z" fill="#2e2e2e" stroke="#002346" stroke-miterlimit="10"></path>
  </g>
  <path d="M309.98,89.36l-1.55,40.08s18.58,32.08,22.18,40.98c.2,.48,.87,.49,1.09,.02l9.82-21.33s11.55-18.55,2.39-30.39l-1-12.92s-21.53,17.11-32.93-16.44Z" fill="#f1b2c0" stroke="#002346" stroke-miterlimit="10"></path>
  <circle cx="316.2" cy="153.28" r="1.79" fill="#fff" stroke="#002346" stroke-miterlimit="10"></circle>
  <circle cx="321.16" cy="162.22" r="1.79" fill="#fff" stroke="#002346" stroke-miterlimit="10"></circle>
  <circle cx="325.87" cy="172.15" r="1.79" fill="#fff" stroke="#002346" stroke-miterlimit="10"></circle>
  <polygon points="226.86 206.84 216.52 240.12 244.39 205.39 226.86 206.84" fill="#f1b2c0" stroke="#002346" stroke-miterlimit="10"></polygon>
  <path d="M236.5,370.3c1.82-1.93,6.68-9.07,11.8-33.4,.2-.93,1.54-.88,1.66,.06,.53,3.99,1.94,8.17,5.52,8.43,2.71,.08,5.01-1.95,5.28-4.65,.52-4.15,.24-12.13-5.64-23.85-1.07-2.13-1.38-4.56-.91-6.9l13.82-68.42-2.45,83.35s18.66,10.19,76.88-28c0,0-31.35,34.92-70.62,40.52v11.51l-4.89,6.45c-.81,1.06-2.41,1.05-3.2-.03h0c-1.39-1.91-4.17-2.09-5.79-.37-5.01,5.33-15.02,15.16-21.15,15.92-.34,.04-.54-.37-.31-.62Z" fill="#fff" stroke="#002346" stroke-miterlimit="10"></path>
  <path d="M223.66,205.39s1.8-10.89,5.72-16.86c1.51-2.3,2.14-5.05,1.95-7.79-.83-11.42-.36-38.93,22.08-46.08l-1.29,13.88c-.22,2.38,.45,4.76,1.9,6.66,2.15,2.81,6.25,6.79,13.8,10.4,.03,0-21.12,9.26-44.16,39.79Z" fill="#eaeaea" stroke="#002346" stroke-miterlimit="10"></path>
  <path d="M264.38,129.06s1.46-3,11-1.58c0,0,11.94-11.51,21-5.59-.08,.33-.13,.66-.16,1-.02,.29-.02,.57,0,.86-1.26,.29-2.48,.74-3.62,1.36-2.36,1.29-4.13,3.44-4.94,6l-5.68,8.79-17.6-10.84Z" fill="#eaeaea" stroke="#002346" stroke-miterlimit="10"></path>
  <path d="M450.28,647.92s6.31-27.8,3.73-46.32l6.41-1.59,12-2.15s19.07,52.84,77.88,47.68v4.37l-100.02-1.99Z" fill="#2e2e2e" stroke="#002346" stroke-miterlimit="10"></path>
  <path d="M547.85,655.07h-95.08c-1.38,0-2.49-1.11-2.49-2.49v-4.66l100,2v2.67c0,1.35-1.08,2.45-2.43,2.48Z" fill="#fff" stroke="#002346" stroke-miterlimit="10"></path>
  <path d="M470.83,593.46c.25,1.32,.76,2.78,1.6,4.4,0,0,17.93,53.1,77.88,47.68h0c0-2.61-1.98-4.78-4.58-5-13.57-1.08-53.28-7.84-63.64-49.3-1.77-7.1-12.6-4.97-11.26,2.22Z" fill="#fff" stroke="#002346" stroke-miterlimit="10"></path>
  <path d="M296.97,609.13c-2.44-4.44-4.24-10.99,2.43-15.6,0,0,33.61-9.57,25.27,13.47,0,0-3.9,14.19,.84,23,.32,.6,.67,1.19,.97,1.81,1.74,3.57,7.54,15.96,6.52,19.69,0,0-16.68-16.69-40.92-1.59-.02,0,.58-17.12,5.72-30.36,1.32-3.41,.93-7.21-.84-10.42Z" fill="#2e2e2e" stroke="#002346" stroke-miterlimit="10"></path>
  <path d="M290.69,654.97c.17-1.75,.63-3.46,1.37-5.06,0,0,21.31-16.2,40.92,1.59,0,0,3.58,7.55-2,9.53-4.35,1.55-25.63,.68-34.76,.23-3.22-.16-5.7-2.9-5.54-6.12,0-.06,0-.11,.01-.17Z" fill="#fff" stroke="#002346" stroke-miterlimit="10"></path>
  <path d="M341.52,149.11l11,6c4.22-8.91,5.96-18.8,5.05-28.62-.14-1.79-1.02-3.45-2.43-4.56-2.57-1.99-7.06-4.71-11.18-3.2-.04,.01-.05,.05-.03,.08,.74,.85,8.99,12.06-2.41,30.3Z" fill="#fff" stroke="#002346" stroke-miterlimit="10"></path>
  <rect x="308.02" y="40.62" width="52" height="72" rx="26" ry="26" fill="#f1b2c0" stroke="#002346" stroke-miterlimit="10"></rect>
  <path d="M316.01,52.33c.69,7.38-1.12,14.77-5.12,21,0,0-9.87,2.29-11.68-7.68,0-.04,9.22-9.89,16.8-13.32Z" fill="#002346" stroke="#002346" stroke-miterlimit="10"></path>
  <path d="M316.17,51.12s3.6,13.07,19.39,19c0,0-14.45-11.64-14.08-20.72l-5.31,1.72Z" fill="#002346" stroke="#002346" stroke-miterlimit="10"></path>
  <path d="M324.56,48.03s11.24,12.35,31.06,10.33c1.14-.12,2.21,.61,2.51,1.72,1.18,4.41,2.05,11.48,2.39,15.04,0,0,8.14-6.76,4.56-20.18,0,0,5.67-3.4,6.56-6.92,0,0-7.79,3-14.93-7.14-.02,0-12.17-.66-32.15,7.15Z" fill="#002346" stroke="#002346" stroke-miterlimit="10"></path>
  <ellipse cx="306.33" cy="75.41" rx="5.8" ry="9.13" transform="translate(-7.53 43.57) rotate(-8.04)" fill="#f1b2c0" stroke="#002346" stroke-miterlimit="10"></ellipse>
  <path d="M324.52,48.12s8.84,9.72,45.64,8.39c5.05-.18,7.28-6.47,3.44-9.75-2.68-2.29-6.7-3.34-14.08-3.64,0,0-16-2-35,5Z" fill="#2e2e2e" stroke="#002346" stroke-miterlimit="10"></path>
  <path d="M299.21,65.61s-4.78-20.61,10.81-36.15c6.52-6.64,15.88-9.65,25.05-8.07,7.9,1.47,17.31,8.23,24.01,20.89,.19,.36-.09,.79-.49,.76-5.73-.4-36.85-1.35-59.38,22.57Z" fill="#2e2e2e" stroke="#002346" stroke-miterlimit="10"></path>
  <path d="M298.52,135.19s-34.08,82.51,12.21,119.97" fill="none" stroke="#002346" stroke-linecap="round" stroke-linejoin="round"></path>
  <path d="M305.47,149.11c-5.83-7.21-9.11-16.15-9.31-25.42-.09-2.59,1.35-5,3.67-6.15l9.23-4.52-.57,14.86c-.04,1.01,.2,2.01,.7,2.89,1.85,3.25,6.47,11.36,6.98,12.26,.63,1.13-10.7,6.08-10.7,6.08Z" fill="#fff" stroke="#002346" stroke-miterlimit="10"></path>
  <path d="M278.9,146.15l12.29,17.62c1.74,2.49,2.3,5.62,1.52,8.56-5,19-28.06,65.18-28.06,65.18-25,49.66-42.32,38.54-42.32,38.54,0,0-11.4-7.11-8.79-26.73,1.33-9.94,5.96-19.14,12.86-26.4l46.56-48.97s2.78-4-5.17-8.34c0,0-16.68-7.95-16.29-16.49l1.47-12.62c.36-3.71,3-6.8,6.6-7.75,2.29-.54,5.1-.19,8.22,2.33l14.1,8.79-3,6.29Z" fill="#f1b2c0" stroke="#002346" stroke-miterlimit="10"></path>
  <path d="M290.58,163.03c.38,2.91-1.68,5.57-4.59,5.95-1.48,.19-2.97-.25-4.11-1.22-4.53-3.83-9-10.33-6.21-20.14,0,0,1.49-9.24,7.45,0,0,0,6.35,7.25,7.46,15.41Z" fill="#eaeaea" stroke="#002346" stroke-miterlimit="10"></path>
  <line x1="274.92" y1="151.49" x2="267.82" y2="145.71" fill="none" stroke="#002346" stroke-linecap="round" stroke-linejoin="round"></line>
  <circle cx="323.55" cy="258.72" r="2.43" fill="#fff" stroke="#002346" stroke-miterlimit="10"></circle>
  <path d="M323.73,259.7c-1.09-.7-2.4-.77-3.5-.29l-7.74-5c-.51-.33-1.19-.18-1.52,.33l-.47,.72c-.32,.51-.17,1.18,.33,1.51l7.33,4.73c-.5,1.56,.07,3.32,1.52,4.26,1.73,1.12,4.04,.62,5.16-1.11,1.12-1.73,.62-4.04-1.11-5.16Z" fill="#ffffff" stroke="#002346" stroke-miterlimit="10"></path>
  <path d="M357,140.95s10.55,45.68-21.31,77.19c-3.34,3.31-7.61,5.61-12.27,6.27-5.8,.82-12.82-.69-14.99-11.62,0,0-3.56-18.19,21.11-23.32,9.24-1.92,18.87-1.28,27.82,1.73,8.53,2.87,19.08,8.28,24.96,18.31,5.56,9.48,4.91,21.57-1.72,30.34-1.56,2.07-3.47,3.99-5.8,5.45" fill="none" stroke="#002346" stroke-linecap="round" stroke-linejoin="round"></path>
  <circle cx="373.37" cy="242.53" r="2.43" fill="#fff" stroke="#002346" stroke-miterlimit="10"></circle>
  <path d="M383.92,235.49l-.73-.45c-.52-.31-1.19-.16-1.51,.36l-4.01,6.43c-.41-.16-.85-.25-1.32-.25-2.06,0-3.73,1.67-3.73,3.73s1.67,3.73,3.73,3.73,3.73-1.67,3.73-3.73c0-.43-.09-.84-.22-1.22l4.41-7.08c.32-.52,.16-1.19-.35-1.52Z" fill="#ffffff" stroke="#002346" stroke-miterlimit="10"></path>
  <rect x="284.26" y="551.46" width="51.02" height="20" rx="5.04" ry="5.04" transform="translate(-53.67 33.15) rotate(-5.64)" fill="#fff" stroke="#002346" stroke-miterlimit="10"></rect>
  <rect x="429.26" y="555.46" width="51.02" height="20" rx="5.04" ry="5.04" transform="translate(-221.8 303.14) rotate(-30)" fill="#fff" stroke="#002346" stroke-miterlimit="10"></rect>
  <g>
    <path d="M457.31,112v-41.34c0-.4,.2-.61,.61-.61h14.71c4.21,0,7.58,1.1,10.09,3.31,2.51,2.21,3.77,5.16,3.77,8.85v18.24c0,3.69-1.26,6.64-3.77,8.85-2.51,2.21-5.88,3.31-10.09,3.31h-14.71c-.41,0-.61-.2-.61-.61Zm6.08-4.44h9.48c2.35,0,4.23-.72,5.62-2.16,1.4-1.44,2.12-3.37,2.16-5.81v-16.54c0-2.43-.7-4.37-2.1-5.81-1.4-1.44-3.29-2.16-5.68-2.16h-9.48c-.16,0-.24,.08-.24,.24v31.98c0,.16,.08,.24,.24,.24Z" fill="#002346"></path>
    <path d="M500.78,111.33c-2.27-1.22-4.03-2.93-5.29-5.14-1.26-2.21-1.88-4.75-1.88-7.63v-14.47c0-2.88,.63-5.41,1.88-7.6,1.26-2.19,3.02-3.89,5.29-5.11,2.27-1.22,4.88-1.82,7.84-1.82s5.63,.61,7.9,1.82c2.27,1.22,4.03,2.92,5.29,5.11,1.26,2.19,1.88,4.72,1.88,7.6v14.47c0,2.88-.63,5.42-1.88,7.63-1.26,2.21-3.02,3.92-5.29,5.14-2.27,1.22-4.9,1.82-7.9,1.82s-5.57-.61-7.84-1.82Zm14.53-5.78c1.7-1.7,2.55-3.95,2.55-6.75v-14.77c0-2.84-.85-5.12-2.55-6.84-1.7-1.72-3.93-2.58-6.69-2.58s-4.98,.86-6.66,2.58c-1.68,1.72-2.52,4-2.52,6.84v14.77c0,2.8,.84,5.05,2.52,6.75,1.68,1.7,3.9,2.55,6.66,2.55s4.99-.85,6.69-2.55Z" fill="#002346"></path>
    <path d="M558.23,70.05h4.62c.4,0,.61,.2,.61,.61v41.34c0,.41-.2,.61-.61,.61h-4.44c-.28,0-.53-.14-.73-.43l-19.03-31.07c-.04-.12-.1-.17-.18-.15-.08,.02-.12,.09-.12,.21l.06,30.82c0,.41-.2,.61-.61,.61h-4.62c-.41,0-.61-.2-.61-.61v-41.34c0-.4,.2-.61,.61-.61h4.5c.28,0,.53,.14,.73,.43l18.97,31.07c.04,.12,.1,.17,.18,.15s.12-.09,.12-.21l-.06-30.82c0-.4,.2-.61,.61-.61Z" fill="#002346"></path>
    <path d="M600.48,75.1h-21.58c-.16,0-.24,.08-.24,.24v13.07c0,.16,.08,.24,.24,.24h14.83c.4,0,.61,.2,.61,.61v3.83c0,.41-.2,.61-.61,.61h-14.83c-.16,0-.24,.08-.24,.24v13.38c0,.16,.08,.24,.24,.24h21.58c.4,0,.61,.2,.61,.61v3.83c0,.41-.2,.61-.61,.61h-27.05c-.41,0-.61-.2-.61-.61v-41.34c0-.4,.2-.61,.61-.61h27.05c.4,0,.61,.2,.61,.61v3.83c0,.41-.2,.61-.61,.61Z" fill="#002346"></path>
    <path d="M611.18,111.33c-.73-.73-1.09-1.66-1.09-2.8s.36-2.07,1.09-2.8c.73-.73,1.66-1.09,2.8-1.09s2.07,.36,2.8,1.09c.73,.73,1.09,1.66,1.09,2.8s-.36,2.07-1.09,2.8-1.66,1.09-2.8,1.09-2.07-.36-2.8-1.09Zm.67-13.44l-.55-27.24c0-.4,.2-.61,.61-.61h4.62c.4,0,.61,.2,.61,.61l-.49,27.24c0,.41-.2,.61-.61,.61h-3.59c-.41,0-.61-.2-.61-.61Z" fill="#002346"></path>
  </g>
</svg>
