<svg xmlns="http://www.w3.org/2000/svg" width="865.76" height="682.89" viewBox="0 0 865.76 682.89"><ellipse cx="285.83" cy="612.57" rx="245.69" ry="47.55" transform="translate(-12.91 6.19) rotate(-1.21)" fill="#020303"/><ellipse cx="285.83" cy="612.57" rx="245.69" ry="47.55" transform="translate(-12.91 6.19) rotate(-1.21)" fill="#fff" opacity="0.7"/><path d="M760.41,398.12s88.06-83.1,39.68-193.45A189.74,189.74,0,0,0,737.87,128C677.32,83.77,524.09-3.71,293.6,30.08a172,172,0,0,0-69.42,26.07c-33.83,22.19-69.68,63-54.43,132.81,5.39,24.69,4.17,50.43-4.71,74.09-8.81,23.45-25.49,52.16-56.54,83.21,0,0-66.16,63.91-1.8,119.23A117.75,117.75,0,0,0,154.24,490C234.49,510.51,559,578.71,760.41,398.12Z" fill="#020303"/><path d="M760.41,398.12s88.06-83.1,39.68-193.45A189.74,189.74,0,0,0,737.87,128C677.32,83.77,524.09-3.71,293.6,30.08a172,172,0,0,0-69.42,26.07c-33.83,22.19-69.68,63-54.43,132.81,5.39,24.69,4.17,50.43-4.71,74.09-8.81,23.45-25.49,52.16-56.54,83.21,0,0-66.16,63.91-1.8,119.23A117.75,117.75,0,0,0,154.24,490C234.49,510.51,559,578.71,760.41,398.12Z" fill="#fff" opacity="0.7"/><rect x="743.3" y="326.47" width="81.82" height="270.26" fill="#29c2d6"/><path d="M542.82,596.57s.54,18.87,10.23,18.87c0,0,11.72,3.38,7.67-19.61Z" fill="#020303"/><path d="M705.78,596.12S706.33,615,716,615c0,0,10.82,1.35,6.54-18.49Z" fill="#020303"/><path d="M790.76,596.57s.55,18.87,10.24,18.87c0,0,10.82,1.35,6.54-18.49Z" fill="#020303"/><rect x="503.01" y="461.26" width="10.82" height="48.46" fill="#e6e6e6"/><rect x="489.49" y="461.26" width="10.82" height="48.46" fill="#e6e6e6"/><rect x="491.74" y="461.26" width="11.27" height="48.46" fill="#020303"/><ellipse cx="497.38" cy="472.08" rx="2.7" ry="4.73" fill="#f6c959"/><rect x="478.22" y="461.26" width="11.27" height="48.46" fill="#020303"/><ellipse cx="483.85" cy="472.08" rx="2.7" ry="4.73" fill="#f6c959"/><rect x="522.4" y="326.47" width="220.9" height="269.81" fill="#fff"/><path d="M743.8,596.78H521.9V326H743.8Zm-220.9-1H742.8V327H522.9Z" fill="#020303"/><rect x="522.85" y="453.15" width="6.99" height="48.46" fill="#e6e6e6"/><rect x="511.58" y="453.15" width="11.27" height="48.46" fill="#29c2d6"/><ellipse cx="517.21" cy="463.96" rx="2.7" ry="4.73" fill="#020303"/><rect x="535.92" y="422.49" width="192.27" height="66.49" rx="14.17" fill="#f6c959"/><rect x="536.6" y="452.92" width="24.12" height="48.46" fill="#fff"/><rect x="525.33" y="452.92" width="11.27" height="48.46" fill="#020303"/><ellipse cx="530.96" cy="463.74" rx="2.7" ry="4.73" fill="#f6c959"/><rect x="534.8" y="345.63" width="192.27" height="66.49" rx="14.41" fill="#f6c959"/><ellipse cx="647.61" cy="363.1" rx="3.94" ry="6.42" fill="#020303"/><ellipse cx="602.98" cy="362.65" rx="3.94" ry="6.42" fill="#020303"/><rect x="587.54" y="360.05" width="48.46" height="6.99" rx="3.16" fill="#fff"/><rect x="635.93" y="362.6" width="11.68" height="1" fill="#fff"/><ellipse cx="648.74" cy="439.96" rx="3.94" ry="6.42" fill="#020303"/><ellipse cx="604.11" cy="439.51" rx="3.94" ry="6.42" fill="#020303"/><rect x="588.67" y="436.92" width="48.46" height="6.99" rx="3.16" fill="#fff"/><rect x="637.06" y="439.46" width="11.68" height="1" fill="#fff"/><rect x="624.96" y="223.01" width="23.89" height="90.73" transform="translate(-53.85 245.43) rotate(-20.95)" fill="#29c2d6"/><ellipse cx="626.32" cy="241.11" rx="5.64" ry="5.67" transform="translate(-44.32 266.55) rotate(-23.23)" fill="#fff"/><rect x="624.8" y="251.29" width="11.27" height="2.27" transform="translate(-48.45 269.09) rotate(-23.23)" fill="#fff"/><rect x="626.77" y="255.87" width="11.27" height="2.27" transform="translate(-50.1 270.24) rotate(-23.23)" fill="#fff"/><rect x="632.85" y="260.29" width="11.27" height="21.77" transform="translate(-55.2 273.79) rotate(-23.23)" fill="#fff"/><rect x="643.14" y="284.26" width="11.27" height="21.77" transform="translate(-63.82 279.79) rotate(-23.23)" fill="#fff"/><rect x="516.09" y="315.65" width="216.61" height="13.98" fill="#fff"/><path d="M733.2,330.12H515.59v-15H733.2Zm-216.61-1H732.2v-13H516.59Z" fill="#020303"/><rect x="568.16" y="453.15" width="7.66" height="48.46" fill="#fff"/><rect x="556.89" y="453.15" width="11.27" height="48.46" fill="#020303"/><ellipse cx="562.52" cy="463.96" rx="2.7" ry="4.73" fill="#29c2d6"/><path d="M476.54,386.78s8.89-4.41,12-10.72c0,0,6.08-16,9.46-12.85,0,0,2.48,6.31-3.38,16.45,0,0,25.7-5.63,33.59,2,0,0,1.8,2.26-9.69,2.71,0,0,9.91-.9,8.79,3.38,0,0-1.81,2.25-7.89,1.8,0,0,7.21,1.13,6.31,4.28,0,0,.68,1.81-8.34,2.26l-7.77-.2a1.1,1.1,0,0,0-1.12,1.21h0a1.09,1.09,0,0,0,1.11,1c2.81-.06,10.53-.05,10.71,1.6,0,0,1.58,2.26-5,2.26,0,0-15.55,0-23.89,3.15,0,0-8.11,1.91-12.67.6a.41.41,0,0,1-.29-.48c.14-.64.21-2.48-.64-7.75Z" fill="#fff"/><path d="M482.86,406.69a15.46,15.46,0,0,1-4.15-.48.91.91,0,0,1-.64-1.07c.1-.45.24-2.09-.64-7.56L476,386.49l.32-.16c.08,0,8.78-4.41,11.82-10.5.47-1.25,4.9-12.65,8.49-13.48a1.89,1.89,0,0,1,1.77.49l.12.19c.1.25,2.35,6.25-2.88,15.92,5-1,25.82-4.56,33,2.38a1.1,1.1,0,0,1,.14,1.17c-.35.79-1.59,1.37-3.75,1.78a4.67,4.67,0,0,1,2.38,1.32,2.44,2.44,0,0,1,.46,2.31l-.09.18c-.06.08-1.26,1.52-4.73,1.94a6.08,6.08,0,0,1,3,2,2.29,2.29,0,0,1,.32,1.83,1.11,1.11,0,0,1-.19.65c-.74,1.13-3.65,1.83-8.64,2.08l-7.81-.2a.66.66,0,0,0-.45.19.6.6,0,0,0,.45,1c10.3-.2,11.09,1.29,11.2,1.94a1.46,1.46,0,0,1,0,1.38c-.54,1-2.33,1.54-5.47,1.54-.15,0-15.56,0-23.71,3.12A44,44,0,0,1,482.86,406.69Zm-3.8-1.41c4.41,1.2,12.26-.61,12.34-.63,8.27-3.14,23.37-3.17,24-3.17,3.74,0,4.45-.76,4.58-1a.53.53,0,0,0,0-.48l-.07-.09,0-.13c0-.44-2.61-1.31-10.2-1.16a1.62,1.62,0,0,1-1.62-1.44,1.6,1.6,0,0,1,.42-1.25,1.71,1.71,0,0,1,1.21-.51l7.77.2c6.91-.35,7.74-1.48,7.83-1.66l0-.07,0-.16a1.33,1.33,0,0,0-.17-1.13c-.94-1.48-4.46-2.32-5.74-2.52l.12-1c5.07.38,7-1.19,7.39-1.55a1.42,1.42,0,0,0-.28-1.29c-1-1.23-4.22-1.47-6.42-1.42l-1.61.08-.07-1c.2,0,.85-.07,1.72-.09,6.36-.39,7.42-1.39,7.59-1.7a.13.13,0,0,0,0-.13c-7.55-7.32-32.81-1.88-33.07-1.83l-1.11.25.57-1c5.24-9.07,3.66-15.05,3.39-15.91a.84.84,0,0,0-.77-.18c-2.6.61-6.52,9.53-7.8,12.92-2.91,5.82-10.33,9.95-12,10.82l1.34,10.38C479.06,401.41,479.28,404.12,479.06,405.28Z" fill="#020303"/><rect x="511.3" y="381.69" width="1" height="15.33" transform="translate(107.59 889.51) rotate(-88.32)" fill="#020303"/><rect x="732.48" y="315.65" width="93.09" height="13.98" fill="#020303"/><rect x="582.58" y="453.15" width="39.67" height="48.46" fill="#e6e6e6"/><circle cx="678.94" cy="216.13" r="31.89" fill="#fff"/><rect x="706.78" y="239.24" width="7.89" height="18.48" transform="translate(32.47 575.34) rotate(-45)" fill="#020303"/><path d="M393.92,622c-11.72-4.5-17.58-3.15-17.58-3.15L375,623.1l-26.14-2,.45-14,40.35,8.11s33.47,6,42.54,3.81a3,3,0,0,0,2.3-2.65C437.85,632.64,393.92,622,393.92,622Z" fill="#29c2d6"/><path d="M369.83,555.1l-10.17,23.82s7.66,12.17,31.1,5.64l8.57-19.39Z" fill="#fff"/><path d="M378,587c-13.69,0-18.72-7.68-18.79-7.78l-.14-.22,10.47-24.49L400,564.87,391.12,585l-.22.07A48.11,48.11,0,0,1,378,587Zm-17.79-8.11c1.15,1.55,9.27,11,30.17,5.28l8.25-18.67-28.54-9.75Z" fill="#020303"/><path d="M434.48,616.37a3,3,0,0,1-2.29,2.65c-9.07,2.16-42.55-3.81-42.55-3.81l-40.35-8.11c-6.54-21.64,10.37-28.18,10.37-28.18,10.82,13.3,31.1,5.64,31.1,5.64C397.3,585,407,594.92,407,594.92c5.64,6.09,19.16,9.7,19.16,9.7C434.63,605,434.8,612.94,434.48,616.37Z" fill="#020303"/><path d="M369.83,555.1,365,566.26s19,10.3,29.93,9.23l4.38-10.32Z" fill="#020303"/><path d="M207.38,551.6l-25-6.8s-11,9.27-1.29,31.59l20.38,5.81Z" fill="#fff"/><path d="M201.86,582.83l-21.13-6-.1-.21c-9.74-22.4,1.32-32.08,1.43-32.17l.2-.17,25.7,7ZM181.46,576l19.62,5.6L206.8,552l-24.28-6.6C181.15,546.71,172.89,556.06,181.46,576Z" fill="#020303"/><path d="M155.6,624.07a3,3,0,0,1-2.94-1.91c-3.39-8.68-2.09-42.66-2.09-42.66l2.48-41.09c20.53-9.45,29.33,6.39,29.33,6.39-11.68,12.55-1.29,31.59-1.29,31.59.45,6.53-8,17.5-8,17.5-5.25,6.42-7,20.31-7,20.31C166.92,622.65,159,623.92,155.6,624.07Z" fill="#020303"/><path d="M144.47,584.67c2.84-12.23.7-17.85.7-17.85l-4.43-.75-1.59-26.18,13.9-1.48-2.48,41.08s-1.3,34,2.09,42.67a3,3,0,0,0,2.94,1.91C140,629.65,144.47,584.67,144.47,584.67Z" fill="#29c2d6"/><path d="M201.47,582.2l-18.28-5.54s-5.69-29.84,24.19-25.06Z" fill="#020303"/><path d="M537.51,246.4s15.09,2.08,14.87-2c0,0,4.18-.67,3.1-6.19C555.48,238.23,542.71,240.25,537.51,246.4Z" fill="#020303"/><rect x="597.91" y="463.29" width="5.64" height="48.46" fill="#fff"/><rect x="586.64" y="463.29" width="11.27" height="48.46" fill="#29c2d6"/><ellipse cx="592.27" cy="474.11" rx="2.7" ry="4.73" fill="#020303"/><rect x="571.31" y="453.15" width="11.27" height="48.46" fill="#29c2d6"/><ellipse cx="576.95" cy="463.96" rx="2.7" ry="4.73" fill="#020303"/><path d="M715.8,122a30,30,0,0,1-30,30H435.17a30,30,0,1,1,0-59.95H685.82A30,30,0,0,1,715.8,122Z" fill="#fff"/><path d="M685.82,152.5H435.17a30.48,30.48,0,0,1,0-60.95H685.82a30.48,30.48,0,1,1,0,61ZM435.17,92.55a29.48,29.48,0,1,0,0,59H685.82a29.48,29.48,0,1,0,0-58.95Z" fill="#020303"/><path d="M715.8,122a30,30,0,0,1-30,30H654.26V92.05h31.56A30,30,0,0,1,715.8,122Z" fill="#020303"/><path d="M675.11,130.19A13.91,13.91,0,1,1,689,116.28,13.93,13.93,0,0,1,675.11,130.19Zm0-26.82A12.91,12.91,0,1,0,688,116.28,12.92,12.92,0,0,0,675.11,103.37Z" fill="#fff"/><rect x="691.25" y="122.55" width="1" height="23.23" transform="translate(99.89 516.55) rotate(-43.84)" fill="#fff"/><rect x="437.37" y="103.54" width="1" height="36.29" fill="#020303"/><path d="M518.12,280.71,485.93,322.5l-8.61,11.18s-19.16,27.28-54.78,14l-34.26-13.53S384.75,340.69,380,350c-5.22,10.26-11.92,23.88-17,35.82-1.27,3-2.45,5.86-3.47,8.56a75,75,0,0,0-3.9,12.76,10,10,0,0,1,.88,4.54c-.12,4-2.49,9.83-13.5,14.4,0,0-2.94.89-8,1.93-14.21,2.93-45.18,7-74.3-4.64a113.54,113.54,0,0,0,12-18.38,98,98,0,0,0,10.74-57.69c-1.12-9.32-1.54-22.47,2.14-34.95,4.35-14.77,14.45-28.6,35.9-34a39.72,39.72,0,0,0,10.28-4.2l20.5-11.94,29.16,19.5s15,6.87,30.12,24.68c0,0,23.89,21,41,4.51L501,265.38S516.76,265.16,518.12,280.71Z" fill="#29c2d6"/><g opacity="0.1"><path d="M485.93,322.5l-8.61,11.18s-19.16,27.28-54.78,14l-34.26-13.53a37.47,37.47,0,0,0,3.83-13.75,33.27,33.27,0,0,1,1.81,9.92s57.93,34.49,92-7.89Z"/></g><path d="M352.22,262.23s-7.89,1.8-3.16,11.49l11.59,24.22a4.27,4.27,0,0,0,3.93,2.44c2.45-.06,5.67-.94,6.35-5,0,0-.9-8.56-4.51-14.65Z" fill="#fff"/><path d="M364.48,300.88a4.78,4.78,0,0,1-4.28-2.72l-11.59-24.22c-1.7-3.48-2-6.4-.93-8.66a7,7,0,0,1,4.43-3.54l.31-.07,14.39,18.74c3.66,6.16,4.58,14.55,4.61,14.9v.13c-.57,3.42-3,5.35-6.83,5.44ZM352,262.8a6,6,0,0,0-3.46,2.92c-.93,2-.62,4.59.94,7.78l11.6,24.23a3.71,3.71,0,0,0,3.45,2.15c2.33-.06,5.22-.89,5.86-4.53-.09-.81-1.09-8.75-4.43-14.38Z" fill="#020303"/><path d="M370.93,295.36s5.21,2,8.05,5a1.28,1.28,0,0,0,2.16-.59c1-4,2.38-11.69.24-18Z" fill="#fff"/><path d="M379.88,301.22a1.73,1.73,0,0,1-1.27-.55c-2.72-2.85-7.81-4.82-7.86-4.84l-.63-.24,11.43-14.91.3.89c2.18,6.42.79,14.21-.23,18.29a1.81,1.81,0,0,1-1.28,1.3A1.88,1.88,0,0,1,379.88,301.22Zm-8.16-6.07a24.86,24.86,0,0,1,7.62,4.83.73.73,0,0,0,.74.21.78.78,0,0,0,.57-.57c1-3.78,2.22-10.82.54-16.82Z" fill="#020303"/><g opacity="0.1"><path d="M335,428c-14.21,2.93-45.18,7-74.3-4.64a113.54,113.54,0,0,0,12-18.38,98,98,0,0,0,10.74-57.69c-1.12-9.32-1.54-22.47,2.14-34.95,3.22,14.3,8.09,42.73,2.44,65.49,0,0-7.44,18.93-2.71,26.15,0,0,3.41,4.77,3,10a7.09,7.09,0,0,0,4.65,7.2C299.76,423.65,312.87,427.05,335,428Z"/></g><path d="M477.32,434.21c-8.12,51.62-74.16,133.44-74.16,133.44C383.32,567.65,377,564,377,564a11.23,11.23,0,0,1-5-3.11c-7.46-8.09-1.34-26-1.34-26,5.19-27.73,33.81-64.92,33.81-64.92-27.72,9.92-57.25,9.24-57.25,9.24L354.47,597C357.18,636.4,334,635.27,334,635.27c-36,6-121-36.94-140.3-47a8.15,8.15,0,0,1-4.37-7,44,44,0,0,1,.36-6.87,52.74,52.74,0,0,1,10.19-24.51c34.94-7.21,91.74,23.45,91.74,23.45l-34-76.19A88.07,88.07,0,0,1,250.68,463c.06-23.75,10-39.58,10-39.58C289.82,435,320.79,431,335,428c5-1,8-1.93,8-1.93,11-4.57,13.38-10.42,13.5-14.4h.06l66.91-8.82C486.33,389.13,477.32,434.21,477.32,434.21Z" fill="#fff"/><path d="M326.51,636.33c-39.72,0-117.08-39.3-133.08-47.66a8.64,8.64,0,0,1-4.64-7.44,45.1,45.1,0,0,1,.36-6.94,53.87,53.87,0,0,1,10.31-24.77l.11-.13.17,0c31.81-6.57,82.15,18.36,90.8,22.83L257.09,497.3A88.82,88.82,0,0,1,250.18,463c.06-23.62,10-39.68,10.1-39.84l.22-.36.39.16c28.53,11.41,58.61,7.79,74,4.61,5-1,7.9-1.91,7.93-1.92,10.65-4.42,13-10,13.15-13.93v-.44l.43,0,67-8.83c22.37-4.89,38.26-2.93,47.18,5.83,10.18,10,7.35,25.57,7.25,26.09-8.05,51.16-73.6,132.85-74.26,133.67l-.15.18h-.24c-19.07,0-25.68-3.29-26.35-3.64a12,12,0,0,1-5.14-3.24c-7.57-8.22-1.7-25.72-1.44-26.46,4.58-24.53,27.79-56.86,32.89-63.74-25,8.56-51.25,8.76-55.33,8.73L355,596.92c1.06,15.43-1.66,26.57-8.07,33.11A18.25,18.25,0,0,1,334,635.77,46.15,46.15,0,0,1,326.51,636.33Zm-126.39-86a53,53,0,0,0-10,24.12,44.34,44.34,0,0,0-.35,6.79,7.65,7.65,0,0,0,4.1,6.58c17,8.89,103.84,53,140,47h.1a17.55,17.55,0,0,0,12.23-5.46C352.4,623,355,612.1,354,597l-7.24-118.21h.54c.3,0,29.76.56,57.07-9.21L406,469l-1,1.35c-.29.37-28.61,37.41-33.72,64.7-.08.25-5.95,17.75,1.22,25.53a10.93,10.93,0,0,0,4.76,3l.09,0c.06,0,6.44,3.51,25.66,3.54,3.52-4.4,66.09-83.31,73.9-133v0c0-.15,2.94-15.46-7-25.19-8.66-8.51-24.24-10.37-46.3-5.55L357,412.15c-.28,4.18-3,9.92-13.79,14.41-.08,0-3.06.93-8.07,2-15.43,3.19-45.53,6.81-74.19-4.51a81.9,81.9,0,0,0-9.73,39A87.74,87.74,0,0,0,258,496.91l34.63,77.51-1.29-.69C290.78,573.42,234.5,543.34,200.12,550.3Z" fill="#020303"/><path d="M372,560.93c-7.46-8.09-1.34-26-1.34-26,5.19-27.73,33.81-64.92,33.81-64.92-27.72,9.92-57.25,9.24-57.25,9.24l-.68-26.6L355.82,468s38.77,5.19,60.41-7.21C415.87,461.33,368.22,530.88,372,560.93Z" fill="#020303"/><path d="M334,635.27c-36,6-121-36.94-140.3-47a8.15,8.15,0,0,1-4.37-7,44,44,0,0,1,.36-6.87C200.69,582,269.89,628.24,334,635.27Z" fill="#020303"/><path d="M317.28,585.91l-25.7-12.62-34-76.19A88.07,88.07,0,0,1,250.68,463l.25-.1c2.18,25.28,21.72,57,21.72,57,15.1,22.76,23.89,51.16,23.89,51.16Z" fill="#020303"/><path d="M278.74,468c8.07-1.22,15.94-5.35,20.66-12.13a35.87,35.87,0,0,0,3.91-7.25c-.2.66-.4,1.33-.61,2-3.05,10.24-13.41,17.32-24,17.39Z" fill="#020303"/><path d="M507.56,266.54l12.58-15.81s4.34-16,33.45-16a2,2,0,0,1,2,1.68h0a2,2,0,0,1-1.72,2.36,32,32,0,0,0-18.47,9.07,3.27,3.27,0,0,0-.88,1.79c-.19,1.2-.13,3,1.66,3.65a3.23,3.23,0,0,0,3.31-.77c1.76-1.71,6-4.89,11-2a1.22,1.22,0,0,1-.13,2.19c-3.32,1.37-9.75,4.48-12.37,8.9,0,0-7.89,8.34-14.88,8.34l-5.43,7A16.61,16.61,0,0,0,507.56,266.54Z" fill="#fff"/><path d="M517.43,278l-.27-1a16.25,16.25,0,0,0-9.76-10l-.67-.23,13-16.3c.47-1.42,6-16.28,33.82-16.28a2.58,2.58,0,0,1,2.58,2.09,2.53,2.53,0,0,1-.45,1.94,2.48,2.48,0,0,1-1.7,1,31.18,31.18,0,0,0-18.17,8.91,2.88,2.88,0,0,0-.75,1.52c-.25,1.66.2,2.71,1.33,3.11a2.72,2.72,0,0,0,2.8-.66c1.7-1.65,6.22-5.17,11.55-2.1a1.72,1.72,0,0,1-.19,3.08c-3.45,1.42-9.61,4.45-12.13,8.7l-.07.09c-.32.34-7.93,8.31-15,8.49Zm-9-11.67a17,17,0,0,1,9.43,9.55l5-6.47h.24c6.46,0,13.89-7.53,14.48-8.14,2.69-4.48,9-7.6,12.58-9.07a.7.7,0,0,0,.44-.61.72.72,0,0,0-.37-.67c-4.57-2.64-8.45.09-10.35,1.95a3.73,3.73,0,0,1-3.83.88c-1.61-.57-2.31-2.06-2-4.2a3.77,3.77,0,0,1,1-2.06,32.21,32.21,0,0,1,18.76-9.21,1.56,1.56,0,0,0,1-.61,1.54,1.54,0,0,0-1.33-2.44c-28.26,0-32.84,15.5-32.88,15.65l-.09.18Z" fill="#020303"/><rect x="513" y="378.85" width="1" height="10.18" transform="translate(85.56 861.4) rotate(-84.92)" fill="#020303"/><rect x="201.42" y="128.79" width="93.54" height="58.61" rx="18.06" fill="#fff"/><path d="M276.91,187.89H219.48a18.58,18.58,0,0,1-18.56-18.56V146.85a18.58,18.58,0,0,1,18.56-18.56h57.43a18.58,18.58,0,0,1,18.56,18.56v22.48A18.58,18.58,0,0,1,276.91,187.89Zm-57.43-58.6a17.58,17.58,0,0,0-17.56,17.56v22.48a17.58,17.58,0,0,0,17.56,17.56h57.43a17.58,17.58,0,0,0,17.56-17.56V146.85a17.58,17.58,0,0,0-17.56-17.56Z" fill="#020303"/><rect x="212.02" y="149.75" width="12.17" height="13.52" rx="5.5" fill="#f6c959"/><rect x="233.2" y="149.75" width="12.17" height="13.52" rx="5.5" fill="#f6c959"/><rect x="254.39" y="150.43" width="12.17" height="13.52" rx="5.5" fill="#f6c959"/><rect x="275.58" y="150.43" width="12.17" height="13.52" rx="5.5" fill="#f6c959"/><rect x="212.02" y="167.11" width="12.17" height="13.52" rx="5.5" fill="#f6c959"/><rect x="233.2" y="167.11" width="12.17" height="13.52" rx="5.5" fill="#f6c959"/><rect x="254.39" y="167.78" width="12.17" height="13.52" rx="5.5" fill="#f6c959"/><rect x="275.58" y="167.78" width="12.17" height="13.52" rx="5.5" fill="#f6c959"/><path d="M295,146.85v.65H201.42v-.65a18.06,18.06,0,0,1,18.06-18.06h57.43A18.06,18.06,0,0,1,295,146.85Z" fill="#020303"/><polygon points="198 252 198 314.44 117.08 314.44 117.08 259.89 119.56 259.86 161.94 259.44 164.76 255.38 167.12 252 198 252" fill="#29c2d6"/><polygon points="164.76 255.38 161.94 259.44 119.56 259.86 119.56 255.38 164.76 255.38" fill="#020303"/><rect x="150.67" y="271.16" width="31.56" height="5.18" fill="#fff"/><rect x="150.67" y="287.84" width="31.56" height="13.52" rx="6.11" fill="#fff"/><path d="M352.22,262.23l4.14-7.47L372,247l18.58,18.42-2,6.6-17.6,23.38s-1.36-9.46-4.51-14.65Z" fill="#fff"/><path d="M370.6,296.62l-.17-1.19c0-.09-1.37-9.42-4.44-14.46l-14.37-18.7,4.38-7.89,16.05-8,19.05,18.88-2.17,7.05Zm-17.79-34.44,14,18.23c2.58,4.21,3.95,11,4.42,13.71l16.85-22.37,1.89-6.22-18.11-18-15.14,7.57Z" fill="#020303"/><path d="M373.26,253.46s1.11,17.5,9.42,26.32l5.85-7.8S379.87,268.14,373.26,253.46Z" fill="#020303"/><ellipse cx="395.95" cy="234.05" rx="25.7" ry="39.45" fill="#fff"/><path d="M396,274c-14.45,0-26.2-17.92-26.2-39.95s11.75-39.94,26.2-39.94,26.19,17.92,26.19,39.94S410.39,274,396,274Zm0-78.89c-13.9,0-25.2,17.47-25.2,38.94S382.05,273,396,273s25.19-17.47,25.19-38.95S409.84,195.11,396,195.11Z" fill="#020303"/><path d="M372,247l-9.15,9.18-6.36-2a7.3,7.3,0,0,1-5.07-6.78c-.28-11.94-.34-40.63,5.35-46,0,0-9.25-6.09,1.8-12,0,0,21.86-14.65,37.19-4.51,0,0,21.41-7.21,26.82,8.12,0,0-9.25,7.45-8.34,13.64,0,0-10.59,17.92-18.48,7.55L389,206.33s-6.31,5-4.06,18.93c0,0,6.31,11.27,2,17.13,0,0-.9-4.28-7.44-7.44L371,241.12Z" fill="#020303"/><ellipse cx="376.11" cy="236.42" rx="6.99" ry="9.35" fill="#fff"/><path d="M376.11,246.27c-4.13,0-7.49-4.42-7.49-9.85s3.36-9.86,7.49-9.86,7.49,4.43,7.49,9.86S380.24,246.27,376.11,246.27Zm0-18.71c-3.58,0-6.49,4-6.49,8.86s2.91,8.85,6.49,8.85,6.49-4,6.49-8.85S379.69,227.56,376.11,227.56Z" fill="#020303"/><path d="M477.52,408.38a7.44,7.44,0,0,1-5.72,3.47l-72.47,5.91s-23,.22-35.84-18.26L314.8,337.3a29.37,29.37,0,0,1-3.37-31,31.14,31.14,0,0,1,1.68-3c5-7.67,13.2-12.32,26.47-3.36a45.15,45.15,0,0,1,10.92,10.49l46.78,62.75a14.73,14.73,0,0,0,11.5,5.94l60.47,1.07a7.48,7.48,0,0,1,7.29,6.56l2.07,16.7A7.42,7.42,0,0,1,477.52,408.38Z" fill="#29c2d6"/><g opacity="0.1"><path d="M477.52,408.38a7.44,7.44,0,0,1-5.72,3.47l-72.47,5.91s-23,.22-35.84-18.26L314.8,337.3a29.37,29.37,0,0,1-3.37-31,31.14,31.14,0,0,1,1.68-3c5-7.67,13.2-12.32,26.47-3.36a45.15,45.15,0,0,1,10.92,10.49l46.78,62.75a14.73,14.73,0,0,0,11.5,5.94l60.47,1.07a7.48,7.48,0,0,1,7.29,6.56l2.07,16.7A7.42,7.42,0,0,1,477.52,408.38Z"/></g><g opacity="0.1"><path d="M477.52,408.38a7.44,7.44,0,0,1-5.72,3.47l-72.47,5.91s-23,.22-35.84-18.26L314.8,337.3a29.37,29.37,0,0,1-3.37-31c.21,1.62,3.14,21.86,24.11,45.42l37.87,47.11s16,18,47.11,12.85Z"/></g><rect x="612.33" y="463.29" width="89.03" height="48.46" fill="#fff"/><rect x="601.06" y="463.29" width="11.27" height="48.8" fill="#020303"/><ellipse cx="606.7" cy="474.11" rx="2.7" ry="4.73" fill="#29c2d6"/><rect x="536.6" y="500.26" width="190.47" height="66.49" rx="8.45" fill="#e6e6e6"/><g opacity="0.4"><rect x="647.72" y="508.14" width="79.34" height="51.17" fill="#fff"/></g><rect x="647.56" y="542.79" width="79.58" height="1" fill="#020303"/><rect x="647.78" y="554.29" width="79.58" height="1" fill="#020303"/><rect x="457.48" y="500.48" width="190.47" height="66.49" rx="16.06" fill="#020303"/><rect x="453.2" y="500.48" width="190.47" height="66.49" rx="15.63" fill="#f6c959"/><ellipse cx="578.75" cy="517.95" rx="6.09" ry="6.42" fill="#020303"/><ellipse cx="505.04" cy="517.72" rx="6.09" ry="6.42" fill="#020303"/><rect x="490.17" y="514.68" width="70.33" height="6.99" rx="3.16" fill="#fff"/><rect x="560.19" y="517.45" width="19.12" height="1" fill="#fff"/><rect x="624.06" y="476.36" width="61.08" height="2.93" fill="#29c2d6"/><rect x="623.61" y="485.83" width="61.08" height="2.93" fill="#29c2d6"/><rect x="623.38" y="494.39" width="61.08" height="2.93" fill="#29c2d6"/><rect x="585.51" y="224.59" width="23.89" height="90.73" fill="#020303"/><ellipse cx="598.59" cy="240.69" rx="5.64" ry="5.67" fill="#fff"/><rect x="592.27" y="251.58" width="11.27" height="2.27" fill="#fff"/><rect x="592.27" y="256.57" width="11.27" height="2.27" fill="#fff"/><rect x="592.27" y="262.24" width="11.27" height="21.77" fill="#fff"/><rect x="592.27" y="288.32" width="11.27" height="21.77" fill="#fff"/><rect x="554.41" y="224.59" width="23.89" height="90.73" fill="#f6c959"/><rect x="561.17" y="288.32" width="11.27" height="21.77" fill="#fff"/><ellipse cx="567.48" cy="240.69" rx="5.64" ry="5.67" fill="#fff"/><rect x="561.17" y="251.58" width="11.27" height="2.27" fill="#fff"/><rect x="561.17" y="256.57" width="11.27" height="2.27" fill="#fff"/><rect x="561.17" y="262.24" width="11.27" height="21.77" fill="#fff"/><path d="M678.27,176.57a38.89,38.89,0,1,0,38.88,38.89A38.89,38.89,0,0,0,678.27,176.57Zm0,68.75a29.87,29.87,0,1,1,29.86-29.86A29.86,29.86,0,0,1,678.27,245.32Z" fill="#f6c959"/><path d="M779.17,311.46a6,6,0,0,1-1,1.29l-2.9,2.9h-8.79L713.3,262.44a5.79,5.79,0,0,1,0-8.19l3.19-3.2a5.79,5.79,0,0,1,8.19,0l53.52,53.52A5.78,5.78,0,0,1,779.17,311.46Z" fill="#f6c959"/><g opacity="0.1"><path d="M779.17,311.46a6,6,0,0,1-1,1.29l-2.9,2.9h-8.79L713.3,262.44a5.79,5.79,0,0,1,0-8.19,22.24,22.24,0,0,0,6.78,9.78S767.26,313.58,779.17,311.46Z"/></g><rect x="217.43" y="122.7" width="8.11" height="14.88" rx="3.67" fill="#f6c959"/><rect x="267.24" y="123.15" width="8.11" height="14.88" rx="3.67" fill="#f6c959"/></svg>