<?xml version="1.0" encoding="UTF-8"?>
<svg xmlns="http://www.w3.org/2000/svg" id="Layer_1" width="865.76" height="682.89" viewBox="0 0 865.76 682.89">
  <g>
    <g>
      <line x1="565.53" y1="206.65" x2="621.5" y2="261.23" fill="none" stroke="#002346" stroke-linecap="round" stroke-linejoin="round"></line>
      <circle cx="548.14" cy="236.39" r="16.44" transform="translate(-25.43 70.99) rotate(-7.24)" fill="#ffffff" stroke="#002346" stroke-miterlimit="10"></circle>
      <line x1="574.99" y1="206.65" x2="630.97" y2="261.23" fill="none" stroke="#002346" stroke-linecap="round" stroke-linejoin="round"></line>
      <line x1="588.59" y1="370.16" x2="623.1" y2="261.23" fill="none" stroke="#002346" stroke-linecap="round" stroke-linejoin="round"></line>
      <line x1="595.37" y1="370.16" x2="630.97" y2="261.23" fill="none" stroke="#002346" stroke-linecap="round" stroke-linejoin="round"></line>
      <rect x="616.8" y="259.29" width="18.65" height="10.62" rx="4.16" ry="4.16" fill="#4389c6" stroke="#002346" stroke-miterlimit="10"></rect>
      <rect x="573.17" y="359.22" width="34.72" height="14.79" fill="#91d7f0" stroke="#0d2445" stroke-miterlimit="10"></rect>
      <rect x="607.89" y="359.22" width="14.29" height="14.79" transform="translate(1230.08 733.22) rotate(180)" fill="#4389c6" stroke="#002346" stroke-miterlimit="10"></rect>
      <path d="M556.3,208.57l16.68,12.87s9.55-13.46,1.73-19.49c-7.82-6.03-18.42,6.62-18.42,6.62Z" fill="#4389c6" stroke="#002346" stroke-miterlimit="10"></path>
      <path d="M527.83,215.26l45.9,35.41s14.36-21.58-7.15-38.18c-21.51-16.6-38.75,2.77-38.75,2.77Z" fill="#91d7f0" stroke="#0d2445" stroke-miterlimit="10"></path>
    </g>
    <g>
      <rect x="207.63" y="314.64" width="94.56" height="59.37" fill="#fff" stroke="#002346" stroke-miterlimit="10"></rect>
      <rect x="302.19" y="314.64" width="48.52" height="59.37" transform="translate(652.9 688.65) rotate(180)" fill="#e6e6e6" stroke="#002346" stroke-miterlimit="10"></rect>
      <rect x="182.14" y="295.28" width="94.56" height="19.36" fill="#fff" stroke="#002346" stroke-miterlimit="10"></rect>
      <rect x="276.7" y="295.28" width="48.52" height="19.36" transform="translate(601.92 609.92) rotate(180)" fill="#e6e6e6" stroke="#002346" stroke-miterlimit="10"></rect>
      <polygon points="290.08 331.97 245.49 331.97 277.91 349.54 290.08 331.97" fill="#e6e6e6" stroke="#002346" stroke-miterlimit="10"></polygon>
      <polygon points="313.06 349.54 324.02 360.14 344.82 349.54 313.06 349.54" fill="#fff" stroke="#002346" stroke-miterlimit="10"></polygon>
      <line x1="299.38" y1="331.83" x2="227.03" y2="331.83" fill="none" stroke="#002346" stroke-linecap="round" stroke-linejoin="round"></line>
      <line x1="266.07" y1="361.52" x2="215.69" y2="361.52" fill="none" stroke="#002346" stroke-linecap="round" stroke-linejoin="round"></line>
      <line x1="302.19" y1="349.54" x2="348.25" y2="349.54" fill="none" stroke="#002346" stroke-linecap="round" stroke-linejoin="round"></line>
      <line x1="194.47" y1="303.9" x2="276.7" y2="303.9" fill="none" stroke="#002346" stroke-linecap="round" stroke-linejoin="round"></line>
      <line x1="317.7" y1="303.9" x2="276.7" y2="303.9" fill="none" stroke="#002346" stroke-linecap="round" stroke-linejoin="round"></line>
    </g>
    <g>
      <path d="M573.29,292.53h-100.21c-2.59,0-4.91,1.81-5.81,4.54l-23.9,72.29h-68.55c-2.47,0-4.46,2.24-4.46,5.01h180.78l25.35-76.68c.83-2.5-.82-5.16-3.2-5.16Z" fill="#4389c6" stroke="#002346" stroke-miterlimit="10"></path>
      <path d="M556.07,374.36h-109.42l25.55-77.3c.9-2.73,3.22-4.54,5.81-4.54h100.21c2.38,0,4.02,2.66,3.2,5.16l-25.35,76.68Z" fill="#91d7f0" stroke="#0d2445" stroke-miterlimit="10"></path>
      <path d="M527.01,334.66c0,3.44-3.3,6.23-7.38,6.23s-7.38-2.79-7.38-6.23,3.3-6.23,7.38-6.23,7.38,2.79,7.38,6.23Z" fill="#4389c6" stroke="#002346" stroke-miterlimit="10"></path>
    </g>
    <g>
      <path d="M554.71,344.34h11.07c2.06,0,3.74,1.67,3.74,3.74v10.81c0,2.06-1.67,3.74-3.74,3.74h-11.07v-18.28h0Z" fill="none" stroke="#002346" stroke-linecap="round" stroke-linejoin="round"></path>
      <rect x="540.45" y="366.84" width="18.64" height="6.36" fill="#1c1c1c" stroke="#002346" stroke-miterlimit="10"></rect>
      <line x1="540.45" y1="370.02" x2="559.09" y2="370.02" fill="#1c1c1c" stroke="#002346" stroke-miterlimit="10"></line>
      <path d="M536.86,337.5h25.81v28.99c0,2.07-1.68,3.76-3.76,3.76h-18.3c-2.07,0-3.76-1.68-3.76-3.76v-28.99h0Z" fill="#1c1c1c" stroke="#002346" stroke-miterlimit="10"></path>
    </g>
    <g>
      <line x1="199.19" y1="374.01" x2="643.7" y2="374.01" fill="none" stroke="#002346" stroke-linecap="round" stroke-linejoin="round"></line>
      <g>
        <line x1="220.21" y1="374.17" x2="291.34" y2="614.66" fill="none" stroke="#002346" stroke-linecap="round" stroke-linejoin="round"></line>
        <line x1="262.91" y1="374.17" x2="191.78" y2="614.66" fill="none" stroke="#002346" stroke-linecap="round" stroke-linejoin="round"></line>
      </g>
      <g>
        <line x1="584.86" y1="374.17" x2="655.99" y2="614.66" fill="none" stroke="#002346" stroke-linecap="round" stroke-linejoin="round"></line>
        <line x1="627.56" y1="374.17" x2="556.43" y2="614.66" fill="none" stroke="#002346" stroke-linecap="round" stroke-linejoin="round"></line>
      </g>
    </g>
  </g>
  <g>
    <path d="M237.99,555.57c-7.93,0-16.58,6.93-20.24,18.06l-13.81,45.62h120.57l8.81-63.68h-95.33Z" fill="#1c1c1c" stroke="#002346" stroke-miterlimit="10"></path>
    <line x1="215.89" y1="578.93" x2="311.37" y2="578.93" fill="none" stroke="#002346" stroke-linecap="round" stroke-linejoin="round"></line>
    <path d="M265.1,556.12l2.63-9.58c.85-3.1,3.67-5.25,6.89-5.25h23.72c3.47,0,5.99,3.31,5.07,6.66l-2.25,8.18" fill="none" stroke="#002346" stroke-linecap="round" stroke-linejoin="round"></path>
    <polygon points="271.73 587.41 252.12 587.41 253.45 583.2 273.06 583.2 271.73 587.41" fill="none" stroke="#002346" stroke-linecap="round" stroke-linejoin="round"></polygon>
    <path d="M299.17,619.25l13.81-45.62c2.48-8.14,8.84-14.51,16.97-17.02l3.38-1.04" fill="none" stroke="#002346" stroke-linecap="round" stroke-linejoin="round"></path>
  </g>
  <g>
    <g>
      <path d="M764.59,94.9c.81,4.19,3.45,7.95,7.52,10.01,.34,.17,.68,.33,1.02,.47,1.48,.61,3.02,.95,4.54,1.04,5.55,.32,11.07-2.66,13.78-8.02,3.64-7.17,.87-15.88-6.18-19.46-5.52-2.8-12.03-1.62-16.34,2.47-1.07,1.01-2,2.2-2.75,3.57-.09,.16-.18,.31-.26,.48-.1,.18-.18,.36-.26,.54-1.33,2.9-1.64,6.01-1.07,8.92Z" fill="#002346" stroke="#002346" stroke-miterlimit="10"></path>
      <path d="M761.16,105.53c.3,.19,.6,.36,.92,.53,3.63,1.84,7.82,1.44,11.04-.68,1.31-.86,2.45-2,3.33-3.4,.19-.29,.36-.61,.53-.93,2.79-5.52,.66-12.22-4.76-14.97-1.42-.72-2.92-1.09-4.41-1.16-.55-.03-1.09-.01-1.63,.05-.53,.05-1.07,.14-1.59,.28-3.02,.77-5.72,2.81-7.25,5.84-2.63,5.19-.9,11.43,3.83,14.44Z" fill="#f48e74" stroke="#002346" stroke-miterlimit="10"></path>
    </g>
    <path d="M815.34,252.14s-13.48,8.75-23.16,1.62c0,0,.72-5.42,1.22-13.08,.68-10.92,1-26.35-1.88-37.28,0,0-.75-27.08-17.38-28.35-2.36-.15-4.67-.74-6.81-1.73-5.45-2.59-15.18-7.68-18.86-12.55,0,0-4.85-7.3-4.42-13.77l2.56-11.36s-13.3,4.95-10.88-26.59c0,0-5.62-11.6-19.24-1.09,0,0-1.36-29.01,28.91-22.68,0,0,23.18,.7,31.43,21.35,0,0,8.46,12.09,7.25,31.76,0,0-1.3,23.95,16.47,45.37l13.13,14.79s28.83,34.67,1.67,53.59Z" fill="#002346" stroke="#002346" stroke-miterlimit="10"></path>
    <path d="M723.04,156.59l-23.57,15.71c-3.15,2.1-5.56,5.13-6.89,8.67l-22.12,58.63h-4.2c-2.53,0-4.87-1.33-6.17-3.5l-21.05-35.18-24.18,22.97,39.89,59.23,33.85-1.21-3.63,27.8,95.49-9.67,31.43-30.22-19.34-55.6-9.07-36.27h0c-1.17-3.12-3.4-5.73-6.29-7.39l-20.91-11.95-33.24-2.02Z" fill="#1c1c1c" stroke="#002346" stroke-miterlimit="10"></path>
    <polygon points="646.28 278.28 707.93 208.17 793.75 281.9 729.89 352.62 646.28 278.28" fill="#fff" stroke="#002346" stroke-miterlimit="10"></polygon>
    <path d="M682.54,229.76l-4.23,5.12c-.82-1.5-2.4-2.53-4.23-2.53-2.67,0-4.84,2.16-4.84,4.84,0,2.15,1.42,3.96,3.37,4.58l-4.6,5.56,6.52,5.39,14.53-17.56-6.52-5.39Z" fill="#ffffff" stroke="#002346" stroke-miterlimit="10"></path>
    <line x1="704.2" y1="186.41" x2="691.45" y2="226.91" fill="none" stroke="#002346" stroke-linecap="round" stroke-linejoin="round"></line>
    <path d="M686.05,313.64l-4.71,78.27s0,44.72,8.46,132.97l9.67,72.53,39.89,2.42v-11.23l26.59-20.2-19.34-93.08,28.36-86.54s13.19-34.26,5.11-65.73l-11.44-21.81-71.59,13.31-11-.9Z" fill="#ffffff" stroke="#002346" stroke-miterlimit="10"></path>
    <path d="M734.52,590.14l-32.4-101.39c-3.33-10.43-4.15-21.49-2.39-32.3l16.06-98.71" fill="none" stroke="#002346" stroke-linecap="round" stroke-linejoin="round"></path>
    <path d="M778.04,609.49l-6.04,18.13c-4.84,13.3-10.88,10.88-10.88,10.88-7.25-1.21-6.04-8.46-6.04-8.46l.16-1.9,1.05-12.61-11.58-31.01,21.25-16.14,7.25,32.64,4.84,8.46Z" fill="#f0b1bf" stroke="#002346" stroke-miterlimit="10"></path>
    <path d="M738.15,627.62c-25.38,15.71-44.82,11.05-44.82,11.05l21.3-16.66v-23.69l21.99,1.33-.85,19.17c.02,3.29,2.38,8.8,2.38,8.8Z" fill="#f0b1bf" stroke="#002346" stroke-miterlimit="10"></path>
    <path d="M782.7,623.48s-10.71,25.89-11.92,25.89c-4.84,10.88-27.8,4.84-27.8,4.84-8.46-3.63,4.84-9.67,4.84-9.67l7.41-16.4-.16,1.9s-1.21,7.25,6.04,8.46c0,0,6.04,2.42,10.88-10.88l6.04-18.13c7.25,3.63,4.67,14,4.67,14Z" fill="#1c1c1c" stroke="#002346" stroke-miterlimit="10"></path>
    <path d="M738.15,645.19l-26.59,6.6c-21.61,4.99-30.64,1.4-34.18-1.32-1.23-.95-1.01-2.86,.36-3.59l15.6-8.22s19.44,4.67,44.82-11.05c8.46,15.71,0,17.58,0,17.58Z" fill="#1c1c1c" stroke="#002346" stroke-miterlimit="10"></path>
    <path d="M627.78,211.6l-10.51-10.68s-20.55,1.21-31.43-3.63l-14.36-6.63c-.74-.34-1.05-1.23-.69-1.96h0c.31-.63,1.03-.94,1.71-.74l10.93,3.28-7.28-5.46c-1.17-.88-1.12-2.64,.1-3.45h0c.69-.46,1.59-.47,2.3-.03l8.51,5.32-2.51-3.58c-.73-1.04,.02-2.46,1.28-2.46h0c.4,0,.78,.15,1.07,.43l9.82,9.24,7.25-1.21s-6.85-6.85-1.17-6.46c1.18,.08,2.33,.44,3.38,.98,1.38,.72,4.09,1.88,7.31,2.07,1.64,.1,3.27-.25,4.82-.82,2.45-.91,8.04-1.81,13.48,5.44l7.25,9.67-11.25,10.68Z" fill="#f0b1bf" stroke="#002346" stroke-miterlimit="10"></path>
    <path d="M583.42,191.25s7.25,4.84,13.3,7.25" fill="none" stroke="#002346" stroke-linecap="round" stroke-linejoin="round"></path>
    <path d="M587.05,187.62s5.7,7.06,14.94,8.97" fill="none" stroke="#002346" stroke-linecap="round" stroke-linejoin="round"></path>
    <line x1="603.97" y1="190.04" x2="621.15" y2="191.25" fill="none" stroke="#002346" stroke-linecap="round" stroke-linejoin="round"></line>
    <path d="M580.6,194.87s-5.64,0-5.04,3.63h13.57l-8.54-3.63Z" fill="#f0b1bf" stroke="#002346" stroke-miterlimit="10"></path>
    <path d="M750.66,127.8l-.33,19.13c-.06,3.6,1.34,7.06,3.88,9.61l2.06,2.06-24.18,27.8-9.07-29.82,3.19-3.34v-6.33l5-19.12,8.43-6.42,10.92,.96,.09,5.46Z" fill="#f0b1bf" stroke="#002346" stroke-miterlimit="10"></path>
    <rect x="711.06" y="94.59" width="34.56" height="53.6" rx="17.28" ry="17.28" transform="translate(141.14 -326.29) rotate(27.86)" fill="#f0b1bf" stroke="#002346" stroke-miterlimit="10"></rect>
    <path d="M723.04,301.37l16.62,40.36,71.44-33.04c12.25-5.67,18.5-19.46,14.69-32.41l-21.15-71.74s-4.48-20.62-16.53-28.66c-3.78-2.52-8.8-2.03-12.07,1.12-6.81,6.55-16.08,23.06-5.25,61.39l15.71,39.89-63.46,23.09Z" fill="#1c1c1c" stroke="#002346" stroke-miterlimit="10"></path>
    <path d="M723.04,301.37l-23.15-22.67c-1.12-1.1-2.94-1.04-3.98,.14h0c-.82,.92-.92,2.27-.26,3.3l9.86,15.47s-1.53,5.33-14.06,5.08c0,0-7.99-.7-12.38,.45-1.64,.43-2.76,1.96-2.76,3.66v3.5c0,.68,.29,1.33,.8,1.79h0c.92,.83,2.32,.82,3.23-.03,1.92-1.77,5.72-3.88,11.11-.36l-8.16,2.91c-1.68,.6-2.46,2.53-1.66,4.13h0c.55,1.1,1.73,1.75,2.96,1.63l7.45-.75c.21-.02,.32,.24,.16,.38l-2.66,2.33c-1.29,1.13-1.73,2.94-1.09,4.53h0c.77,1.92,2.87,2.95,4.86,2.37l6.37-1.85-2.77,2.24c-1.26,1.02-1.45,2.86-.43,4.11h0c.8,.99,2.15,1.34,3.34,.87l31.74-12.55-8.52-20.68Z" fill="#f0b1bf" stroke="#002346" stroke-miterlimit="10"></path>
    <path d="M732.42,103.86c2.07-.02,4.38,.09,6.94,.36,0,0,.82,8.45,8.87,16.32l16.09,1.82s4.04-13.68,2.84-15.9-15.11-12.5-15.11-12.5l-16.06-9.03s-3.99,1.47-8.39,4.9c-5.9,4.6-2.65,14.12,4.82,14.05Z" fill="#002346" stroke="#002346" stroke-miterlimit="10"></path>
    <ellipse cx="752.05" cy="122.35" rx="6.04" ry="4.23" transform="translate(318.64 749.01) rotate(-64.57)" fill="#f0b1bf" stroke="#002346" stroke-miterlimit="10"></ellipse>
  </g>
  <g>
    <g>
      <rect x="232.99" y="46.06" width="328.65" height="95.72" rx="7" ry="7" fill="#fff" stroke="#002346" stroke-miterlimit="10"></rect>
      <path d="M302.5,60.88c-18.24,0-33.03,14.79-33.03,33.03s14.79,33.03,33.03,33.03,33.03-14.79,33.03-33.03-14.79-33.03-33.03-33.03Zm0,55.75c-12.54,0-22.71-10.17-22.71-22.71s10.17-22.71,22.71-22.71,22.71,10.17,22.71,22.71-10.17,22.71-22.71,22.71Z" fill="#1c1c1c" stroke="#002346" stroke-miterlimit="10"></path>
      <g>
        <path d="M364.69,86.27h1.97c.07,0,.13,.02,.17,.07,.05,.05,.07,.11,.07,.17v13.84c0,.07-.02,.13-.07,.17-.05,.05-.11,.07-.17,.07h-1.88c-.07,0-.13-.02-.17-.07-.05-.05-.07-.11-.07-.17v-11.63s-.01-.05-.04-.07c-.03-.02-.05-.02-.08-.01l-2.05,.63s-.06,.02-.1,.02c-.05,0-.1-.02-.13-.06-.03-.04-.05-.1-.05-.16l-.06-1.35c0-.14,.05-.23,.16-.29l2.21-1.11c.11-.04,.21-.06,.31-.06Z" fill="#002346"></path>
        <path d="M370.72,99.61c-.84-.81-1.26-1.91-1.26-3.29v-5.77c0-1.36,.42-2.45,1.26-3.24,.84-.8,1.98-1.2,3.41-1.2s2.58,.4,3.43,1.2c.85,.8,1.28,1.88,1.28,3.24v5.77c0,1.38-.43,2.47-1.28,3.29-.85,.81-2,1.22-3.43,1.22s-2.57-.41-3.41-1.22Zm5.11-1.47c.42-.42,.63-.98,.63-1.69v-5.98c0-.71-.21-1.27-.63-1.69-.42-.42-.99-.62-1.7-.62s-1.25,.21-1.67,.62c-.42,.42-.62,.98-.62,1.69v5.98c0,.71,.21,1.27,.62,1.69,.42,.42,.97,.62,1.67,.62s1.28-.21,1.7-.62Z" fill="#002346"></path>
        <path d="M382.35,99.61c-.84-.81-1.26-1.91-1.26-3.29v-5.77c0-1.36,.42-2.45,1.26-3.24,.84-.8,1.98-1.2,3.41-1.2s2.58,.4,3.43,1.2c.85,.8,1.28,1.88,1.28,3.24v5.77c0,1.38-.43,2.47-1.28,3.29-.85,.81-2,1.22-3.43,1.22s-2.57-.41-3.41-1.22Zm5.11-1.47c.42-.42,.63-.98,.63-1.69v-5.98c0-.71-.21-1.27-.63-1.69-.42-.42-.99-.62-1.7-.62s-1.25,.21-1.67,.62c-.42,.42-.62,.98-.62,1.69v5.98c0,.71,.21,1.27,.62,1.69,.42,.42,.97,.62,1.67,.62s1.28-.21,1.7-.62Z" fill="#002346"></path>
        <path d="M394.65,91.91c-.48-.28-.87-.66-1.15-1.14-.28-.48-.42-1-.42-1.58s.14-1.08,.42-1.56c.28-.48,.66-.86,1.15-1.14,.48-.28,1.01-.42,1.59-.42s1.08,.14,1.57,.42c.48,.28,.87,.66,1.15,1.14,.28,.48,.42,1,.42,1.56s-.14,1.1-.42,1.58c-.28,.48-.66,.86-1.14,1.14-.48,.28-1,.42-1.58,.42s-1.1-.14-1.59-.42Zm2.76-1.5c.32-.33,.48-.73,.48-1.21s-.16-.86-.48-1.19c-.32-.33-.71-.49-1.18-.49s-.88,.16-1.21,.49c-.33,.33-.49,.72-.49,1.19s.16,.88,.49,1.21c.33,.33,.73,.49,1.21,.49s.86-.16,1.18-.49Zm-2.04,10.11c-.03-.05-.02-.12,.02-.2l7.72-13.88c.07-.11,.17-.16,.31-.16h1.19c.09,0,.16,.03,.18,.08,.03,.05,.02,.12-.02,.2l-7.7,13.88c-.07,.11-.17,.16-.31,.16h-1.21c-.1,0-.16-.03-.18-.08Zm7.16-.15c-.48-.28-.87-.66-1.15-1.14-.28-.48-.42-1-.42-1.58s.14-1.08,.42-1.56c.28-.48,.66-.86,1.15-1.14,.48-.28,1.01-.42,1.59-.42s1.08,.14,1.57,.42c.48,.28,.87,.66,1.15,1.14,.28,.48,.42,1,.42,1.56s-.14,1.1-.42,1.58c-.28,.48-.66,.86-1.14,1.14-.48,.28-1,.42-1.58,.42s-1.1-.14-1.59-.42Zm2.77-1.5c.33-.33,.49-.73,.49-1.21s-.16-.86-.49-1.19c-.33-.33-.72-.49-1.19-.49s-.88,.16-1.21,.49c-.33,.33-.49,.72-.49,1.19s.16,.88,.49,1.21c.33,.33,.73,.49,1.21,.49s.86-.16,1.19-.49Z" fill="#002346"></path>
        <path d="M416.32,100.17c-.78-.4-1.38-.97-1.8-1.69s-.63-1.56-.63-2.52v-5.06c0-.96,.21-1.79,.63-2.52,.42-.72,1.02-1.28,1.8-1.68,.78-.4,1.68-.59,2.7-.59s1.9,.19,2.68,.57c.78,.38,1.38,.92,1.8,1.62,.42,.7,.63,1.5,.63,2.42,0,.07-.02,.13-.07,.17-.05,.05-.11,.07-.17,.07l-1.88,.1c-.16,0-.25-.07-.25-.23,0-.81-.25-1.45-.75-1.95-.5-.49-1.16-.74-2-.74s-1.5,.25-2.01,.74c-.51,.49-.76,1.14-.76,1.95v5.22c0,.79,.25,1.43,.76,1.92,.5,.49,1.17,.74,2.01,.74s1.5-.24,2-.73c.5-.48,.75-1.13,.75-1.93,0-.15,.08-.23,.25-.23l1.88,.08c.07,0,.13,.02,.17,.06,.05,.04,.07,.09,.07,.14,0,.93-.21,1.74-.63,2.45-.42,.7-1.02,1.25-1.8,1.63-.78,.38-1.67,.57-2.68,.57s-1.92-.2-2.7-.6Z" fill="#002346"></path>
        <path d="M428.81,100.19c-.79-.42-1.4-1.01-1.83-1.77-.43-.76-.64-1.64-.64-2.64v-4.67c0-.98,.22-1.85,.66-2.61,.44-.76,1.05-1.34,1.83-1.76,.79-.42,1.69-.62,2.71-.62s1.95,.21,2.73,.62c.79,.42,1.4,1,1.83,1.76,.44,.76,.66,1.63,.66,2.61v4.67c0,1-.22,1.88-.66,2.64-.44,.76-1.05,1.35-1.83,1.77-.79,.42-1.7,.62-2.73,.62s-1.93-.21-2.72-.62Zm4.79-2.22c.52-.53,.78-1.24,.78-2.11v-4.77c0-.89-.26-1.6-.78-2.13-.52-.53-1.21-.8-2.07-.8s-1.53,.27-2.05,.8c-.52,.53-.78,1.24-.78,2.13v4.77c0,.87,.26,1.58,.78,2.11,.52,.53,1.2,.8,2.05,.8s1.55-.27,2.07-.8Z" fill="#002346"></path>
        <path d="M448.92,86.27h1.88c.07,0,.13,.02,.17,.07,.05,.05,.07,.11,.07,.17v13.84c0,.07-.02,.13-.07,.17-.05,.05-.11,.07-.17,.07h-1.88c-.07,0-.13-.02-.17-.07-.05-.05-.07-.11-.07-.17v-9.77s-.02-.07-.05-.08c-.03-.01-.06,0-.07,.04l-2.56,3.93c-.07,.11-.16,.16-.29,.16h-.94c-.12,0-.22-.05-.29-.16l-2.58-3.91s-.04-.05-.07-.04c-.03,.01-.05,.04-.05,.08v9.75c0,.07-.02,.13-.07,.17-.05,.05-.11,.07-.17,.07h-1.88c-.07,0-.13-.02-.17-.07-.05-.05-.07-.11-.07-.17v-13.84c0-.07,.02-.13,.07-.17,.05-.05,.11-.07,.17-.07h1.88c.12,0,.22,.05,.29,.16l3.34,5.06s.05,.04,.08,.04c.03,0,.05-.01,.06-.04l3.34-5.06c.07-.11,.16-.16,.29-.16Z" fill="#002346"></path>
        <path d="M462.06,86.79c.66,.36,1.16,.86,1.53,1.5,.36,.65,.54,1.4,.54,2.24s-.18,1.57-.55,2.21c-.37,.64-.89,1.14-1.57,1.48-.67,.35-1.46,.52-2.34,.52h-3.28c-.07,0-.1,.03-.1,.1v5.51c0,.07-.02,.13-.07,.17-.05,.05-.11,.07-.17,.07h-1.88c-.07,0-.13-.02-.17-.07-.05-.05-.07-.11-.07-.17v-13.86c0-.07,.02-.13,.07-.17,.05-.05,.11-.07,.17-.07h5.63c.86,0,1.62,.18,2.27,.53Zm-.94,5.43c.42-.41,.63-.95,.63-1.62s-.21-1.24-.63-1.66-.98-.63-1.68-.63h-3.05c-.07,0-.1,.03-.1,.1v4.32c0,.07,.03,.1,.1,.1h3.05c.7,0,1.26-.2,1.68-.61Z" fill="#002346"></path>
        <path d="M466.29,100.53s-.07-.11-.07-.17v-13.84c0-.07,.02-.13,.07-.17,.05-.05,.11-.07,.17-.07h1.88c.07,0,.13,.02,.17,.07,.05,.05,.07,.11,.07,.17v11.94c0,.07,.03,.1,.1,.1h6.86c.07,0,.13,.02,.17,.07,.05,.05,.07,.11,.07,.17v1.56c0,.07-.02,.13-.07,.17-.05,.05-.11,.07-.17,.07h-9.09c-.07,0-.13-.02-.17-.07Z" fill="#002346"></path>
        <path d="M487.54,88.25s-.11,.07-.17,.07h-6.98c-.07,0-.1,.03-.1,.1v3.83c0,.07,.03,.1,.1,.1h4.69c.07,0,.13,.02,.17,.07s.07,.11,.07,.17v1.56c0,.07-.02,.13-.07,.17-.05,.05-.11,.07-.17,.07h-4.69c-.07,0-.1,.03-.1,.1v3.95c0,.07,.03,.1,.1,.1h6.98c.07,0,.13,.02,.17,.07,.05,.05,.07,.11,.07,.17v1.56c0,.07-.02,.13-.07,.17-.05,.05-.11,.07-.17,.07h-9.21c-.07,0-.13-.02-.17-.07-.05-.05-.07-.11-.07-.17v-13.84c0-.07,.02-.13,.07-.17,.05-.05,.11-.07,.17-.07h9.21c.07,0,.13,.02,.17,.07,.05,.05,.07,.11,.07,.17v1.56c0,.07-.02,.13-.07,.17Z" fill="#002346"></path>
        <path d="M499.62,86.35s.07,.11,.07,.17v1.58c0,.07-.02,.13-.07,.17-.05,.05-.11,.07-.17,.07h-3.77c-.07,0-.1,.03-.1,.1v11.92c0,.07-.02,.13-.07,.17-.05,.05-.11,.07-.17,.07h-1.88c-.07,0-.13-.02-.17-.07-.05-.05-.07-.11-.07-.17v-11.92c0-.07-.03-.1-.1-.1h-3.62c-.07,0-.13-.02-.17-.07-.05-.05-.07-.11-.07-.17v-1.58c0-.07,.02-.13,.07-.17,.05-.05,.11-.07,.17-.07h9.97c.07,0,.13,.02,.17,.07Z" fill="#002346"></path>
        <path d="M511.52,88.25s-.11,.07-.17,.07h-6.98c-.07,0-.1,.03-.1,.1v3.83c0,.07,.03,.1,.1,.1h4.69c.07,0,.13,.02,.17,.07s.07,.11,.07,.17v1.56c0,.07-.02,.13-.07,.17-.05,.05-.11,.07-.17,.07h-4.69c-.07,0-.1,.03-.1,.1v3.95c0,.07,.03,.1,.1,.1h6.98c.07,0,.13,.02,.17,.07,.05,.05,.07,.11,.07,.17v1.56c0,.07-.02,.13-.07,.17-.05,.05-.11,.07-.17,.07h-9.21c-.07,0-.13-.02-.17-.07-.05-.05-.07-.11-.07-.17v-13.84c0-.07,.02-.13,.07-.17,.05-.05,.11-.07,.17-.07h9.21c.07,0,.13,.02,.17,.07,.05,.05,.07,.11,.07,.17v1.56c0,.07-.02,.13-.07,.17Z" fill="#002346"></path>
        <path d="M514.07,100.53s-.07-.11-.07-.17v-13.84c0-.07,.02-.13,.07-.17,.05-.05,.11-.07,.17-.07h5c.97,0,1.82,.17,2.56,.51,.74,.34,1.31,.83,1.71,1.46,.4,.63,.6,1.38,.6,2.22v5.94c0,.85-.2,1.59-.6,2.22-.4,.63-.97,1.12-1.71,1.46-.74,.34-1.59,.51-2.56,.51h-5c-.07,0-.13-.02-.17-.07Zm2.41-1.98h2.87c.72,0,1.3-.23,1.73-.69s.65-1.07,.67-1.83v-5.18c0-.78-.22-1.4-.66-1.85-.44-.46-1.02-.69-1.76-.69h-2.85c-.07,0-.1,.03-.1,.1v10.03c0,.07,.03,.1,.1,.1Z" fill="#002346"></path>
      </g>
    </g>
    <g>
      <rect x="264.33" y="159.35" width="264.28" height="80.47" rx="7" ry="7" fill="#fff" stroke="#002346" stroke-miterlimit="10"></rect>
      <path d="M321.93,171.21c-15.44,0-27.95,12.51-27.95,27.95s12.51,27.95,27.95,27.95,27.95-12.51,27.95-27.95-12.51-27.95-27.95-27.95Zm0,47.17c-10.61,0-19.22-8.6-19.22-19.22s8.6-19.22,19.22-19.22,19.22,8.6,19.22,19.22-8.6,19.22-19.22,19.22Z" fill="#fff" stroke="#002346" stroke-miterlimit="10"></path>
      <path d="M349.88,199.16c0-15.44-12.51-27.95-27.95-27.95-12.99,0-23.9,8.86-27.04,20.86l8.97,.55c2.68-7.39,9.76-12.67,18.07-12.67,10.61,0,19.22,8.6,19.22,19.22h8.74Z" fill="#ffffff" stroke="#002346" stroke-miterlimit="10"></path>
      <g>
        <g>
          <rect x="376.14" y="208.22" width="130.44" height="10.16" rx="3" ry="3" fill="#fff" stroke="#002346" stroke-miterlimit="10"></rect>
          <rect x="376.14" y="208.22" width="84.7" height="10.16" rx="3" ry="3" fill="#ffffff" stroke="#002346" stroke-miterlimit="10"></rect>
        </g>
        <g>
          <path d="M432.59,192.36s.07,.11,.07,.17v1.64c0,.07-.02,.13-.07,.17-.05,.05-.11,.07-.17,.07h-.86c-.07,0-.1,.03-.1,.1v3.42c0,.07-.02,.13-.07,.17-.05,.05-.11,.07-.17,.07h-1.88c-.07,0-.13-.02-.17-.07-.05-.05-.07-.11-.07-.17v-3.42c0-.07-.03-.1-.1-.1h-6.22c-.07,0-.13-.02-.17-.07-.05-.05-.07-.11-.07-.17v-1.31c0-.08,.02-.18,.06-.31l3.87-8.52c.05-.12,.15-.18,.29-.18h2.01c.1,0,.16,.02,.19,.07,.03,.05,.03,.12,0,.22l-3.64,8.03s-.01,.05,0,.08c.01,.03,.03,.04,.06,.04h3.64c.07,0,.1-.03,.1-.1v-2.78c0-.07,.02-.13,.07-.17,.05-.05,.11-.07,.17-.07h1.88c.07,0,.13,.02,.17,.07,.05,.05,.07,.11,.07,.17v2.78c0,.07,.03,.1,.1,.1h.86c.07,0,.13,.02,.17,.07Z" fill="#002346"></path>
          <path d="M443.75,193.66c0,.64-.09,1.25-.27,1.82-.29,.87-.81,1.57-1.58,2.08-.76,.51-1.66,.77-2.68,.77s-1.89-.25-2.64-.75c-.75-.5-1.28-1.17-1.58-2.02-.11-.3-.2-.64-.27-1.02v-.04c0-.15,.08-.23,.25-.23h1.94c.14,0,.23,.08,.27,.23,.01,.08,.05,.2,.1,.37,.15,.45,.39,.8,.72,1.04,.33,.25,.72,.37,1.19,.37s.89-.13,1.23-.4c.34-.27,.58-.63,.72-1.1,.12-.33,.18-.7,.18-1.13,0-.4-.05-.78-.16-1.17-.1-.45-.31-.79-.66-1.03-.34-.24-.76-.36-1.25-.36-.46,0-.88,.11-1.26,.32-.38,.21-.62,.49-.73,.83-.05,.14-.15,.2-.29,.2h-1.99c-.07,0-.13-.02-.17-.07-.05-.05-.07-.11-.07-.17v-8.11c0-.07,.02-.13,.07-.17,.05-.05,.11-.07,.17-.07h7.96c.07,0,.13,.02,.17,.07,.05,.05,.07,.11,.07,.17v1.56c0,.07-.02,.13-.07,.17-.05,.05-.11,.07-.17,.07h-5.73c-.07,0-.1,.03-.1,.1l-.02,3.69c0,.05,.01,.09,.04,.09,.03,0,.05,0,.08-.03,.64-.48,1.41-.72,2.31-.72,.96,0,1.78,.24,2.49,.73,.7,.48,1.18,1.15,1.44,2,.18,.61,.27,1.25,.27,1.9Z" fill="#002346"></path>
          <path d="M447.61,189.49c-.48-.28-.87-.66-1.15-1.14-.28-.48-.42-1-.42-1.58s.14-1.08,.42-1.56c.28-.48,.66-.86,1.15-1.14,.48-.28,1.01-.42,1.59-.42s1.08,.14,1.57,.42c.48,.28,.87,.66,1.15,1.14,.28,.48,.42,1,.42,1.56s-.14,1.1-.42,1.58c-.28,.48-.66,.86-1.14,1.14-.48,.28-1,.42-1.58,.42s-1.1-.14-1.59-.42Zm2.76-1.5c.32-.33,.48-.73,.48-1.21s-.16-.86-.48-1.19c-.32-.33-.71-.49-1.18-.49s-.88,.16-1.21,.49c-.33,.33-.49,.72-.49,1.19s.16,.88,.49,1.21c.33,.33,.73,.49,1.21,.49s.86-.16,1.18-.49Zm-2.04,10.11c-.03-.05-.02-.12,.02-.2l7.72-13.88c.07-.11,.17-.16,.31-.16h1.19c.09,0,.16,.03,.18,.08,.03,.05,.02,.12-.02,.2l-7.7,13.88c-.07,.11-.17,.16-.31,.16h-1.21c-.1,0-.16-.03-.18-.08Zm7.16-.15c-.48-.28-.87-.66-1.15-1.14-.28-.48-.42-1-.42-1.58s.14-1.08,.42-1.56c.28-.48,.66-.86,1.15-1.14,.48-.28,1.01-.42,1.59-.42s1.08,.14,1.57,.42c.48,.28,.87,.66,1.15,1.14,.28,.48,.42,1,.42,1.56s-.14,1.1-.42,1.58c-.28,.48-.66,.86-1.14,1.14-.48,.28-1,.42-1.58,.42s-1.1-.14-1.59-.42Zm2.77-1.5c.33-.33,.49-.73,.49-1.21s-.16-.86-.49-1.19c-.33-.33-.72-.49-1.19-.49s-.88,.16-1.21,.49c-.33,.33-.49,.72-.49,1.19s.16,.88,.49,1.21c.33,.33,.73,.49,1.21,.49s.86-.16,1.19-.49Z" fill="#002346"></path>
        </g>
      </g>
    </g>
    <g>
      <rect x="264.33" y="257.39" width="264.28" height="80.47" rx="7" ry="7" fill="#fff" stroke="#002346" stroke-miterlimit="10"></rect>
      <path d="M321.93,269.25c-15.44,0-27.95,12.51-27.95,27.95s12.51,27.95,27.95,27.95,27.95-12.51,27.95-27.95-12.51-27.95-27.95-27.95Zm0,47.17c-10.61,0-19.22-8.6-19.22-19.22s8.6-19.22,19.22-19.22,19.22,8.6,19.22,19.22-8.6,19.22-19.22,19.22Z" fill="#fff" stroke="#002346" stroke-miterlimit="10"></path>
      <path d="M321.93,277.99c10.61,0,19.22,8.6,19.22,19.22h8.74c0-15.44-12.51-27.95-27.95-27.95v8.74Z" fill="#91d7f0" stroke="#0d2445" stroke-miterlimit="10"></path>
      <g>
        <g>
          <rect x="376.14" y="305.32" width="130.44" height="10.16" rx="3" ry="3" fill="#fff" stroke="#002346" stroke-miterlimit="10"></rect>
          <rect x="376.14" y="305.32" width="64.38" height="10.16" rx="3" ry="3" fill="#91d7f0" stroke="#0d2445" stroke-miterlimit="10"></rect>
        </g>
        <g>
          <path d="M432.1,292.61c0,.76-.12,1.44-.35,2.03-.31,.86-.83,1.53-1.56,2-.72,.47-1.6,.71-2.62,.71s-1.89-.26-2.63-.77c-.74-.51-1.27-1.2-1.59-2.08-.16-.42-.26-.98-.29-1.66,0-.16,.08-.25,.25-.25h1.9c.16,0,.25,.08,.25,.25,.03,.44,.09,.78,.2,1.04,.12,.44,.35,.78,.69,1.03,.33,.25,.74,.38,1.22,.38,.9,0,1.52-.41,1.86-1.23,.18-.4,.27-.91,.27-1.54,0-.7-.1-1.27-.31-1.72-.36-.76-.97-1.15-1.84-1.15-.23,0-.55,.14-.94,.41-.05,.03-.1,.04-.14,.04-.07,0-.14-.04-.21-.12l-.94-1.31c-.04-.07-.06-.12-.06-.16,0-.07,.03-.13,.08-.18l3.38-3.32s.03-.05,.02-.08c-.01-.03-.04-.04-.08-.04h-5.12c-.07,0-.13-.02-.17-.07-.05-.05-.07-.11-.07-.17v-1.56c0-.07,.02-.13,.07-.17,.05-.05,.11-.07,.17-.07h8.17c.07,0,.13,.02,.17,.07,.05,.05,.07,.11,.07,.17v1.78c0,.12-.04,.23-.12,.31l-2.93,2.95c-.05,.05-.03,.1,.08,.12,1.27,.18,2.17,.88,2.7,2.11,.27,.66,.41,1.41,.41,2.25Z" fill="#002346"></path>
          <path d="M443.19,292.65c0,.64-.09,1.25-.27,1.82-.29,.87-.81,1.57-1.58,2.08-.76,.51-1.66,.77-2.68,.77s-1.89-.25-2.64-.75c-.75-.5-1.28-1.17-1.58-2.02-.11-.3-.2-.64-.27-1.02v-.04c0-.15,.08-.23,.25-.23h1.94c.14,0,.23,.08,.27,.23,.01,.08,.05,.2,.1,.37,.15,.45,.39,.8,.72,1.04,.33,.25,.72,.37,1.19,.37s.89-.13,1.23-.4c.34-.27,.58-.63,.72-1.1,.12-.33,.18-.7,.18-1.13,0-.4-.05-.78-.16-1.17-.1-.45-.31-.79-.66-1.03-.34-.24-.76-.36-1.25-.36-.46,0-.88,.11-1.26,.32-.38,.21-.62,.49-.73,.83-.05,.14-.15,.2-.29,.2h-1.99c-.07,0-.13-.02-.17-.07-.05-.05-.07-.11-.07-.17v-8.11c0-.07,.02-.13,.07-.17,.05-.05,.11-.07,.17-.07h7.96c.07,0,.13,.02,.17,.07,.05,.05,.07,.11,.07,.17v1.56c0,.07-.02,.13-.07,.17-.05,.05-.11,.07-.17,.07h-5.73c-.07,0-.1,.03-.1,.1l-.02,3.69c0,.05,.01,.09,.04,.09,.03,0,.05,0,.08-.03,.64-.48,1.41-.72,2.31-.72,.96,0,1.78,.24,2.49,.73,.7,.48,1.18,1.15,1.44,2,.18,.61,.27,1.25,.27,1.9Z" fill="#002346"></path>
          <path d="M447.05,288.48c-.48-.28-.87-.66-1.15-1.14-.28-.48-.42-1-.42-1.58s.14-1.08,.42-1.56c.28-.48,.66-.86,1.15-1.14,.48-.28,1.01-.42,1.59-.42s1.08,.14,1.57,.42c.48,.28,.87,.66,1.15,1.14,.28,.48,.42,1,.42,1.56s-.14,1.1-.42,1.58c-.28,.48-.66,.86-1.14,1.14-.48,.28-1,.42-1.58,.42s-1.1-.14-1.59-.42Zm2.76-1.5c.32-.33,.48-.73,.48-1.21s-.16-.86-.48-1.19c-.32-.33-.71-.49-1.18-.49s-.88,.16-1.21,.49c-.33,.33-.49,.72-.49,1.19s.16,.88,.49,1.21c.33,.33,.73,.49,1.21,.49s.86-.16,1.18-.49Zm-2.04,10.11c-.03-.05-.02-.12,.02-.2l7.72-13.88c.07-.11,.17-.16,.31-.16h1.19c.09,0,.16,.03,.18,.08,.03,.05,.02,.12-.02,.2l-7.7,13.88c-.07,.11-.17,.16-.31,.16h-1.21c-.1,0-.16-.03-.18-.08Zm7.16-.15c-.48-.28-.87-.66-1.15-1.14-.28-.48-.42-1-.42-1.58s.14-1.08,.42-1.56c.28-.48,.66-.86,1.15-1.14,.48-.28,1.01-.42,1.59-.42s1.08,.14,1.57,.42c.48,.28,.87,.66,1.15,1.14,.28,.48,.42,1,.42,1.56s-.14,1.1-.42,1.58c-.28,.48-.66,.86-1.14,1.14-.48,.28-1,.42-1.58,.42s-1.1-.14-1.59-.42Zm2.77-1.5c.33-.33,.49-.73,.49-1.21s-.16-.86-.49-1.19c-.33-.33-.72-.49-1.19-.49s-.88,.16-1.21,.49c-.33,.33-.49,.72-.49,1.19s.16,.88,.49,1.21c.33,.33,.73,.49,1.21,.49s.86-.16,1.19-.49Z" fill="#002346"></path>
        </g>
      </g>
    </g>
    <g>
      <rect x="264.33" y="355.44" width="264.28" height="80.47" rx="7" ry="7" fill="#fff" stroke="#002346" stroke-miterlimit="10"></rect>
      <path d="M321.93,367.3c-15.44,0-27.95,12.51-27.95,27.95s12.51,27.95,27.95,27.95,27.95-12.51,27.95-27.95-12.51-27.95-27.95-27.95Zm0,47.17c-10.61,0-19.22-8.6-19.22-19.22s8.6-19.22,19.22-19.22,19.22,8.6,19.22,19.22-8.6,19.22-19.22,19.22Z" fill="#fff" stroke="#002346" stroke-miterlimit="10"></path>
      <path d="M335.1,381.26c3.72,3.5,6.04,8.48,6.04,13.99h8.74c0-8.41-3.72-15.96-9.6-21.08l-5.18,7.09Z" fill="#4389c6" stroke="#002346" stroke-miterlimit="10"></path>
      <g>
        <g>
          <rect x="376.14" y="404.27" width="130.44" height="10.16" rx="3" ry="3" fill="#fff" stroke="#002346" stroke-miterlimit="10"></rect>
          <rect x="376.14" y="404.27" width="62.68" height="10.16" rx="3" ry="3" fill="#4389c6" stroke="#002346" stroke-miterlimit="10"></rect>
        </g>
        <g>
          <path d="M425.76,392.23s.03,.04,.07,.04h5.83c.07,0,.13,.02,.17,.07,.05,.05,.07,.11,.07,.17v1.56c0,.07-.02,.13-.07,.17-.05,.05-.11,.07-.17,.07h-8.8c-.07,0-.13-.02-.17-.07-.05-.05-.07-.11-.07-.17v-1.47c0-.12,.04-.23,.12-.31,1.04-1.11,2.24-2.46,3.6-4.07l.96-1.13c1.26-1.46,1.88-2.57,1.88-3.32,0-.56-.2-1.02-.59-1.37-.4-.35-.91-.53-1.54-.53s-1.14,.18-1.53,.53c-.39,.36-.58,.83-.58,1.41v.53c0,.07-.02,.13-.07,.17-.05,.05-.11,.07-.17,.07h-1.9c-.07,0-.13-.02-.17-.07-.05-.05-.07-.11-.07-.17v-.88c.03-.74,.24-1.38,.63-1.92,.4-.55,.93-.97,1.61-1.27,.68-.3,1.43-.45,2.26-.45,.91,0,1.71,.17,2.4,.51,.68,.34,1.21,.81,1.58,1.4s.55,1.26,.55,2c0,1.12-.59,2.41-1.78,3.87-.66,.82-1.73,2.05-3.23,3.69l-.78,.86s-.04,.05-.03,.08Z" fill="#002346"></path>
          <path d="M435.26,393.33c-.84-.81-1.26-1.91-1.26-3.29v-5.77c0-1.36,.42-2.45,1.26-3.24,.84-.8,1.98-1.2,3.41-1.2s2.58,.4,3.43,1.2c.85,.8,1.28,1.88,1.28,3.24v5.77c0,1.38-.43,2.47-1.28,3.29-.85,.81-2,1.22-3.43,1.22s-2.57-.41-3.41-1.22Zm5.11-1.47c.42-.42,.63-.98,.63-1.69v-5.98c0-.71-.21-1.27-.63-1.69-.42-.42-.99-.62-1.7-.62s-1.25,.21-1.67,.62c-.42,.42-.62,.98-.62,1.69v5.98c0,.71,.21,1.27,.62,1.69,.42,.42,.97,.62,1.67,.62s1.28-.21,1.7-.62Z" fill="#002346"></path>
          <path d="M447.56,385.63c-.48-.28-.87-.66-1.15-1.14-.28-.48-.42-1-.42-1.58s.14-1.08,.42-1.56c.28-.48,.66-.86,1.15-1.14,.48-.28,1.01-.42,1.59-.42s1.08,.14,1.57,.42c.48,.28,.87,.66,1.15,1.14,.28,.48,.42,1,.42,1.56s-.14,1.1-.42,1.58c-.28,.48-.66,.86-1.14,1.14-.48,.28-1,.42-1.58,.42s-1.1-.14-1.59-.42Zm2.76-1.5c.32-.33,.48-.73,.48-1.21s-.16-.86-.48-1.19c-.32-.33-.71-.49-1.18-.49s-.88,.16-1.21,.49c-.33,.33-.49,.72-.49,1.19s.16,.88,.49,1.21c.33,.33,.73,.49,1.21,.49s.86-.16,1.18-.49Zm-2.04,10.11c-.03-.05-.02-.12,.02-.2l7.72-13.88c.07-.11,.17-.16,.31-.16h1.19c.09,0,.16,.03,.18,.08,.03,.05,.02,.12-.02,.2l-7.7,13.88c-.07,.11-.17,.16-.31,.16h-1.21c-.1,0-.16-.03-.18-.08Zm7.16-.15c-.48-.28-.87-.66-1.15-1.14-.28-.48-.42-1-.42-1.58s.14-1.08,.42-1.56c.28-.48,.66-.86,1.15-1.14,.48-.28,1.01-.42,1.59-.42s1.08,.14,1.57,.42c.48,.28,.87,.66,1.15,1.14,.28,.48,.42,1,.42,1.56s-.14,1.1-.42,1.58c-.28,.48-.66,.86-1.14,1.14-.48,.28-1,.42-1.58,.42s-1.1-.14-1.59-.42Zm2.77-1.5c.33-.33,.49-.73,.49-1.21s-.16-.86-.49-1.19c-.33-.33-.72-.49-1.19-.49s-.88,.16-1.21,.49c-.33,.33-.49,.72-.49,1.19s.16,.88,.49,1.21c.33,.33,.73,.49,1.21,.49s.86-.16,1.19-.49Z" fill="#002346"></path>
        </g>
      </g>
    </g>
  </g>
  <g>
    <g>
      <path d="M155.6,648.05c-17.57,1.64-30.31-3.26-30.31-3.26-6.08-3.65-10.94-2.19-10.94-2.19v3.4c-25.53,0-25.53-4.47-25.53-4.47v-6.47c0-4.86,2.03-5.04,2.03-5.04,.16,1.47,1.15,2.74,2.58,3.19,3.57,1.13,11.62,3.08,24.57,3.08,0,0,28.45,11.59,43.17,3.38,2.5-1.4,3.45-4.55,2.07-6.99,3.95,6.33-.19,14.69-7.63,15.38Z" fill="#0d2445" stroke="#0d2445" stroke-miterlimit="10"></path>
      <path d="M35.34,644.8v5.11c0,1.71,1.38,3.09,3.09,3.09h25.41c1.71,0,3.09-1.38,3.09-3.09v-9.44l-10.93-4.17-17.02,4.86-3.65,3.65Z" fill="#0d2445" stroke="#0d2445" stroke-miterlimit="10"></path>
      <path d="M76.67,288.64s-29.17,120.32-37.68,257.68l-2.43,52.27,34.04,4.86,40.72-180.52-18.77,180.52h34.62l32.17-164.11s13.37-111.84,6.08-161.68l-70.21-7.76-18.54,18.73Z" fill="#91d7f0" stroke="#0d2445" stroke-miterlimit="10"></path>
      <path d="M107.06,145.65l-8.51,6.8-31.13,16.04c-5.75,2.96-10.05,8.11-11.95,14.29l-20.14,65.71s-6.08,17.02,15.8,29.18c21.88,12.16,62,21.88,62,21.88l4.86-26.74,47.41,4.86-1.22-25.53,5.85,12.06c2.04,4.21,5.91,7.38,10.53,8.13,2.33,.38,4.77,.19,7.1-.63h0c7.76-2.72,11.71-11.33,8.71-18.98l-18.82-47.99-1.22-9.73s-1.82-40.46-42.24-43.33l-27.05-6.02Z" fill="#ffffff" stroke="#002346" stroke-miterlimit="10"></path>
      <path d="M164.2,252.14l-14.59-47.41c5.75,.85,21.79,1.38,26.74-9.73" fill="none" stroke="#002346" stroke-linecap="round" stroke-linejoin="round"></path>
      <path d="M179.15,208.74s-6.17,14.62-23.32,7.74" fill="none" stroke="#002346" stroke-linecap="round" stroke-linejoin="round"></path>
      <polyline points="118 272.81 72.41 252.14 85.18 199.87" fill="none" stroke="#002346" stroke-linecap="round" stroke-linejoin="round"></polyline>
      <path d="M98.6,295.63s-4.44-19.6,6.87-28.5" fill="none" stroke="#002346" stroke-linecap="round" stroke-linejoin="round"></path>
      <polygon points="98.55 152.46 119.22 175.55 127.73 162.18 107.06 145.65 98.55 152.46" fill="#fff" stroke="#002346" stroke-linecap="round" stroke-linejoin="round"></polygon>
      <path d="M130.32,160.15s7.13,3.25,12,11.76c0,0,.11-10.85-1.77-19.41l-6.44-.83v5.49l-3.79,2.98Z" fill="#fff" stroke="#002346" stroke-linecap="round" stroke-linejoin="round"></path>
      <path d="M124.62,167.07c-.54-.02,9.19,6.06,9.19,6.06l1.22,80.23,9.73,12.16,6.72-13.37s-3.06-62-14.61-80.23l.11-6.9s-4.05-3.25-6.64-4.86l-2.59,2.04-3.11,4.89Z" fill="#91d7f0" stroke="#0d2445" stroke-miterlimit="10"></path>
      <path d="M132.9,347.57s-12.47,50.46-21.59,75.37" fill="none" stroke="#002346" stroke-linecap="round" stroke-linejoin="round"></path>
      <path d="M161.17,639.67c-14.72,8.21-43.17-3.38-43.17-3.38-12.95,0-20.99-1.95-24.57-3.08-1.42-.45-2.42-1.71-2.58-3.19-.47-4.6,.4-9.54,.4-9.54l3.99-17.02h28.71c10.82,19.45,32.94,25.53,32.94,25.53,3.28,.47,5.12,1.85,6.14,3.36,.06,.1,.12,.19,.18,.29,.01,.01,.01,.02,.01,.04,1.39,2.44,.44,5.59-2.07,6.99Z" fill="#ffffff" stroke="#002346" stroke-miterlimit="10"></path>
      <path d="M41.35,599.29v25.52c0,2.3-.79,4.5-2.19,6.33-1.72,2.25-3.82,6.47-3.82,13.67,0,0,13.51-4.86,22.56,0,0,0,10.06,4.63,8.95-5.59,0,0-2.33-11.43-1.11-19.94,0,0,1.18-10.77,1.2-16.33l-25.58-3.65Z" fill="#ffffff" stroke="#002346" stroke-miterlimit="10"></path>
      <polygon points="151.47 276.13 196.56 262.85 243.22 264.3 184.88 281.38 142.17 279.01 151.47 276.13" fill="#fff" stroke="#002346" stroke-linecap="round" stroke-linejoin="round"></polygon>
      <polygon points="111.32 120.85 111.32 137.51 107.06 145.65 127.73 162.18 134.11 157.17 134.11 147.59 134.11 128.52 115.57 114.77 111.32 114.77 111.32 120.85" fill="#f0b1bf" stroke="#002346" stroke-miterlimit="10"></polygon>
      <rect x="116.18" y="81.95" width="35.86" height="65.65" rx="17.93" ry="17.93" fill="#f0b1bf" stroke="#002346" stroke-miterlimit="10"></rect>
      <path d="M114.9,289.89l19.21,5.74s5.77,1.49,6.99-3.38c0,0,4.86,1.22,6.08-4.86,0,0,4.86,.92,6.08-3.8,0,0,5.21,.26,7.79-1.5,2.11-1.44,1.21-4.76-1.33-5.02l-11.47-1.18s-8.36-7.96-16.87-5.53l-13.86,5.13-2.62,14.38Z" fill="#f0b1bf" stroke="#002346" stroke-miterlimit="10"></path>
      <line x1="137.43" y1="274.8" x2="148.25" y2="275.91" fill="none" stroke="#002346" stroke-linecap="round" stroke-linejoin="round"></line>
      <line x1="153.26" y1="283.6" x2="137.43" y2="282.77" fill="none" stroke="#002346" stroke-linecap="round" stroke-linejoin="round"></line>
      <line x1="147.18" y1="287.39" x2="137.43" y2="287.47" fill="none" stroke="#002346" stroke-linecap="round" stroke-linejoin="round"></line>
      <line x1="141.1" y1="292.26" x2="132.9" y2="291.04" fill="none" stroke="#002346" stroke-linecap="round" stroke-linejoin="round"></line>
      <g>
        <rect x="146.88" y="138.73" width="3.65" height="29.91" transform="translate(-46.51 66.38) rotate(-21.85)" fill="#1c1c1c" stroke="#002346" stroke-linecap="round" stroke-linejoin="round"></rect>
        <polygon points="141.44 140.48 141.31 135.24 144.83 139.12 141.44 140.48" fill="#fff" stroke="#002346" stroke-linecap="round" stroke-linejoin="round"></polygon>
      </g>
      <path d="M159.34,192.57v12.16s12.16,0,15.07-7.29l-4.13-15.8v-11.83c0-1.81-.75-3.54-2.1-4.75-3.2-2.89-9.44-7.88-14.25-7.82h-9.35s-1.05,4.95,3.82,6.17l1.22,14.59s2.43,10.94,9.73,14.59Z" fill="#f0b1bf" stroke="#002346" stroke-miterlimit="10"></path>
      <line x1="148.4" y1="163.4" x2="161.77" y2="162.95" fill="none" stroke="#002346" stroke-linecap="round" stroke-linejoin="round"></line>
      <path d="M164.24,171.91l-7.03,2.52c-1.85,.66-3.01,2.49-2.83,4.44l.38,4.21c.17,1.83,2.43,2.62,3.68,1.28,.84-.91,1.63-2.14,2.07-3.79,0-.03,.04-.02,.04,0v7.14" fill="none" stroke="#002346" stroke-linecap="round" stroke-linejoin="round"></path>
      <path d="M153.28,114.31s15.76-10.77,4.41-18.55c0,0,12.09-13.1-16.9-20.31,0,0-21.13-4.81-27.97,7.47,0,0-15.79,4.8-9.56,20.69l3.37,17.92c.38,1.74,1.92,2.98,3.7,2.98h5.25l1.22-18.23s2.85-3.82,6.06-10.99c0,0,6.41,6.94,13.89,4.29,0,0,6.94,9.37,15.96,7.26l.57,7.48Z" fill="#0d2445" stroke="#0d2445" stroke-miterlimit="10"></path>
      <path d="M111.65,81.12l-.87,.23s-1.82-3.94-3.5-5.39l4.34-1.07s.88,2.29,.04,6.24Z" fill="#0d2445" stroke="#0d2445" stroke-linecap="round" stroke-linejoin="round"></path>
      <ellipse cx="111.32" cy="114.77" rx="4.25" ry="6.08" fill="#f0b1bf" stroke="#002346" stroke-miterlimit="10"></ellipse>
    </g>
    <polygon points="207.96 261.42 207.96 264.54 231.2 265.14 231.2 262.27 207.96 261.42" fill="#e6e6e6" stroke="#002346" stroke-linecap="round" stroke-linejoin="round"></polygon>
  </g>
</svg>
